<svg width="26" height="27" viewBox="0 0 26 27" fill="none" xmlns="http://www.w3.org/2000/svg">
<path d="M23.8348 5.56517H20.598V2.32834C20.598 1.93813 20.443 1.56391 20.1671 1.28799C19.8912 1.01207 19.5169 0.857056 19.1267 0.857056H1.47129C1.08108 0.857056 0.706849 1.01207 0.43093 1.28799C0.15501 1.56391 0 1.93813 0 2.32834V21.7493C0 22.9199 0.46503 24.0426 1.29279 24.8704C2.12055 25.6981 3.24323 26.1632 4.41386 26.1632H22.0693C22.9278 26.1632 23.7511 25.8222 24.3581 25.2151C24.9651 24.6081 25.3061 23.7848 25.3061 22.9263V7.03646C25.3061 6.64625 25.1511 6.27202 24.8752 5.9961C24.5993 5.72018 24.225 5.56517 23.8348 5.56517ZM11.476 20.8665H4.41386C4.17973 20.8665 3.9552 20.7735 3.78964 20.608C3.62409 20.4424 3.53109 20.2179 3.53109 19.9838C3.53109 19.7496 3.62409 19.5251 3.78964 19.3596C3.9552 19.194 4.17973 19.101 4.41386 19.101H11.476C11.7102 19.101 11.9347 19.194 12.1002 19.3596C12.2658 19.5251 12.3588 19.7496 12.3588 19.9838C12.3588 20.2179 12.2658 20.4424 12.1002 20.608C11.9347 20.7735 11.7102 20.8665 11.476 20.8665ZM16.1841 17.3355H4.41386C4.17973 17.3355 3.9552 17.2425 3.78964 17.0769C3.62409 16.9114 3.53109 16.6868 3.53109 16.4527C3.53109 16.2186 3.62409 15.994 3.78964 15.8285C3.9552 15.6629 4.17973 15.5699 4.41386 15.5699H16.1841C16.4183 15.5699 16.6428 15.6629 16.8084 15.8285C16.9739 15.994 17.0669 16.2186 17.0669 16.4527C17.0669 16.6868 16.9739 16.9114 16.8084 17.0769C16.6428 17.2425 16.4183 17.3355 16.1841 17.3355ZM17.0669 12.3331C17.0639 12.5663 16.9699 12.789 16.805 12.9539C16.6401 13.1188 16.4173 13.2128 16.1841 13.2159H4.41386C4.18068 13.2128 3.95791 13.1188 3.79302 12.9539C3.62812 12.789 3.53414 12.5663 3.53109 12.3331V6.44794C3.53414 6.21477 3.62812 5.992 3.79302 5.8271C3.95791 5.6622 4.18068 5.56822 4.41386 5.56517H16.1841C16.4173 5.56822 16.6401 5.6622 16.805 5.8271C16.9699 5.992 17.0639 6.21477 17.0669 6.44794V12.3331ZM23.5406 22.9263C23.5406 23.3166 23.3856 23.6908 23.1096 23.9667C22.8337 24.2426 22.4595 24.3976 22.0693 24.3976C21.6791 24.3976 21.3049 24.2426 21.0289 23.9667C20.753 23.6908 20.598 23.3166 20.598 22.9263V7.33071H23.5406V22.9263Z" fill="#222222"/>
<path d="M5.29492 7.33081H15.2997V11.4504H5.29492V7.33081Z" fill="#222222"/>
</svg>
