<svg width="18" height="18" viewBox="0 0 18 18" fill="none" xmlns="http://www.w3.org/2000/svg">
<mask id="mask0_33_23" style="mask-type:luminance" maskUnits="userSpaceOnUse" x="0" y="0" width="18" height="18">
<path d="M0 0H18V18H0V0Z" fill="white"/>
</mask>
<g mask="url(#mask0_33_23)">
<path d="M15.6295 3.39876C15.1901 3.83811 14.4778 3.83811 14.0385 3.39876C13.5991 2.95941 13.5991 2.24711 14.0385 1.80776C14.4778 1.36842 15.1901 1.36842 15.6295 1.80776C16.0688 2.24711 16.0688 2.95941 15.6295 3.39876Z" stroke="white" stroke-miterlimit="10" stroke-linecap="round" stroke-linejoin="round"/>
<path d="M3.96152 16.1922C3.52217 16.6316 2.80987 16.6316 2.37053 16.1922C1.93118 15.7529 1.93118 15.0406 2.37053 14.6012C2.80987 14.1619 3.52217 14.1619 3.96152 14.6012C4.40087 15.0406 4.40087 15.7529 3.96152 16.1922Z" stroke="white" stroke-miterlimit="10" stroke-linecap="round" stroke-linejoin="round"/>
<path d="M7.29395 17.4803C7.84534 17.5906 8.41564 17.6484 8.99948 17.6484C13.7759 17.6484 17.6479 13.7764 17.6479 9C17.6479 6.91492 16.9099 5.00228 15.681 3.50873" stroke="white" stroke-miterlimit="10" stroke-linecap="round" stroke-linejoin="round"/>
<path d="M10.722 0.522963C10.1655 0.410534 9.58964 0.351506 9 0.351506C4.2236 0.351506 0.351562 4.22355 0.351562 8.99994C0.351562 11.085 1.08956 12.9977 2.31845 14.4912" stroke="white" stroke-miterlimit="10" stroke-linecap="round" stroke-linejoin="round"/>
<path d="M9.0006 11.5534C7.59041 11.5534 6.4472 10.4102 6.4472 9C6.4472 7.58981 7.59041 6.44664 9.0006 6.44664C10.4108 6.44664 11.554 7.58981 11.554 9C11.554 10.4102 10.4108 11.5534 9.0006 11.5534ZM14.0925 7.89775C13.9585 7.27436 13.7132 6.69234 13.3781 6.17375L14.0517 5.50012L12.4967 3.94632L11.8237 4.61939C11.3051 4.28425 10.7231 4.03896 10.0997 3.90505V2.95312H7.90147V3.90505C7.27808 4.03896 6.69611 4.28425 6.17752 4.61939L5.50445 3.94632L3.94952 5.50012L4.62312 6.17375C4.28797 6.69234 4.04269 7.27436 3.90874 7.89775H2.95432L2.95312 10.096H3.90871C4.04265 10.7194 4.28794 11.3014 4.62308 11.82L3.94692 12.4961L5.50072 14.0511L6.17745 13.3744C6.69607 13.7095 7.27808 13.9548 7.90147 14.0888V15.0469H10.0997V14.0888C10.7231 13.9548 11.3051 13.7095 11.8238 13.3744L12.5005 14.0511L14.0543 12.4961L13.3781 11.82C13.7133 11.3014 13.9585 10.7194 14.0925 10.096H15.0481V7.89775H14.0925Z" stroke="white" stroke-miterlimit="10" stroke-linecap="round" stroke-linejoin="round"/>
</g>
</svg>
