<svg width="18" height="18" viewBox="0 0 18 18" fill="none" xmlns="http://www.w3.org/2000/svg">
<path d="M17.3772 9.71996C16.8449 9.34121 16.1363 9.35246 15.619 9.75371L11.9825 12.5512C11.8851 11.8162 11.2552 11.25 10.498 11.25H4.49968V10.5C4.49968 10.2937 4.33098 10.125 4.12479 10.125H2.25033C2.08162 10.125 1.93167 10.2412 1.88668 10.4062L0.0122188 17.5312C-0.0177726 17.6437 0.00846996 17.7637 0.0796995 17.8537C0.150929 17.9475 0.259648 18 0.375864 18H4.12479C4.33098 18 4.49968 17.8312 4.49968 17.625V16.8975L10.8316 17.25H10.8541C10.9403 17.25 11.0228 17.22 11.0865 17.1675L17.4447 12.0787C17.8084 11.7862 18.0108 11.3512 17.9996 10.8825C17.9846 10.4175 17.7596 9.99371 17.3772 9.71996ZM3.74615 17.25H0.859476L2.53524 10.875H3.74615V11.625V13.875V16.5V17.25ZM16.9761 11.4937L10.7304 16.4925L4.49968 16.1437V13.875V12H10.498C10.9103 12 11.2477 12.3375 11.2477 12.75C11.2477 13.1625 10.9103 13.5 10.498 13.5H6.37414C6.16795 13.5 5.99925 13.6687 5.99925 13.875C5.99925 14.0812 6.16795 14.25 6.37414 14.25H10.498C10.8279 14.25 11.1315 14.1412 11.379 13.9612C11.3865 13.9575 11.394 13.95 11.4014 13.9462L16.0764 10.3462C16.3313 10.1512 16.6799 10.1437 16.9424 10.3312C17.1298 10.4662 17.2423 10.6725 17.2498 10.905C17.2535 11.1375 17.156 11.3512 16.9761 11.4937Z" fill="white"/>
<path d="M7.49501 6H8.61969V7.125C8.61969 7.33125 8.78839 7.5 8.99458 7.5H10.4941C10.7003 7.5 10.869 7.33125 10.869 7.125V6H11.9937C12.1999 6 12.3686 5.83125 12.3686 5.625V4.125C12.3686 3.91875 12.1999 3.75 11.9937 3.75H10.869V2.625C10.869 2.41875 10.7003 2.25 10.4941 2.25H8.99458C8.78839 2.25 8.61969 2.41875 8.61969 2.625V3.75H7.49501C7.28882 3.75 7.12012 3.91875 7.12012 4.125V5.625C7.12012 5.83125 7.28882 6 7.49501 6ZM7.8699 4.5H8.99458C9.20077 4.5 9.36947 4.33125 9.36947 4.125V3H10.1193V4.125C10.1193 4.33125 10.288 4.5 10.4941 4.5H11.6188V5.25H10.4941C10.288 5.25 10.1193 5.41875 10.1193 5.625V6.75H9.36947V5.625C9.36947 5.41875 9.20077 5.25 8.99458 5.25H7.8699V4.5Z" fill="white"/>
<path d="M2.99599 7.875C3.20218 7.875 3.37088 7.70625 3.37088 7.5V5.25H4.88544C5.07664 7.7625 7.18353 9.75 9.74405 9.75C12.3046 9.75 14.4115 7.7625 14.6027 5.25H16.1172V7.5C16.1172 7.70625 16.2859 7.875 16.4921 7.875C16.6983 7.875 16.867 7.70625 16.867 7.5V4.875C16.867 4.66875 16.6983 4.5 16.4921 4.5H14.6027C14.4115 1.9875 12.3046 0 9.74405 0C7.18353 0 5.07664 1.9875 4.88544 4.5H2.99599C2.7898 4.5 2.62109 4.66875 2.62109 4.875V7.5C2.62109 7.70625 2.7898 7.875 2.99599 7.875ZM9.74405 0.75C12.0196 0.75 13.8679 2.59875 13.8679 4.875C13.8679 7.15125 12.0196 9 9.74405 9C7.46845 9 5.62023 7.15125 5.62023 4.875C5.62023 2.59875 7.4722 0.75 9.74405 0.75Z" fill="white"/>
<path d="M2.97046 15.9826C2.90298 15.8176 2.72678 15.7238 2.55058 15.7576C2.29191 15.8101 2.16444 16.1101 2.31065 16.3351C2.36689 16.4213 2.45686 16.4776 2.55058 16.4926C2.83925 16.5526 3.08293 16.2601 2.97046 15.9826Z" fill="white"/>
</svg>
