<svg width="60" height="72" viewBox="0 0 60 72" fill="none" xmlns="http://www.w3.org/2000/svg">
<path d="M59.9101 19.2727C59.9101 19.2714 59.9101 19.2689 59.9088 19.2676C59.686 17.7427 52.3572 11.5713 45.6904 11.5713C38.4334 11.5713 31.7118 20.3861 29.8288 20.5713C28.1087 20.5777 28.1152 23.1427 29.8353 23.1427C35.1273 23.1427 41.3237 7.19472 55.1837 18.0487C53.5431 18.4524 52.3898 19.4861 51.7904 21.0856C47.6464 17.5614 40.9784 19.553 39.1605 23.9476C38.5246 25.5071 40.9093 26.4779 41.5739 24.917C43.0581 21.5716 48.9913 20.129 51.6522 24.9723C53.8415 28.9516 60.8744 25.7861 59.9101 19.2727ZM53.9483 23.7534C53.99 21.3389 54.9491 20.1997 57.3638 20.4594C57.2817 23.6891 54.5738 24.8643 53.9483 23.7534Z" fill="#12372A"/>
<path d="M44.271 25.4854C44.3101 25.5304 48.1882 30.0137 48.1882 36C48.1882 48.8083 37.7384 69.4286 31.2476 69.4286C26.6332 69.4286 4.93102 51.9879 2.79259 38.1356C27.9872 48.7093 18.5682 6.67414 42.0257 6.43886C42.9535 6.43629 45.5793 6.42857 46.9932 6.42857C48.007 6.42857 49.7089 6.93 49.7089 10.2857C49.7089 11.9867 52.3152 11.9867 52.3152 10.2857C52.3152 5.54143 49.4483 3.85714 46.9932 3.85714C45.4334 3.85714 43.1412 3.86486 41.6791 3.86871V3.88671C35.802 4.03586 31.7024 6.543 28.6413 10.0929V6.45171C28.6752 4.61057 27.0359 2.57143 23.4289 2.57143C21.9211 2.57143 20.7223 2.93014 19.827 3.61543C19.0047 2.15357 16.8324 0 14.8921 0C10.6165 0 6.45176 4.97057 8.97721 8.31471C10.9384 10.9144 11.4857 13.5244 11.6395 14.7343C8.94724 16.4134 0 22.9719 0 36C0 51.4131 24.7463 72 31.2476 72C40.4398 72 50.7944 48.5151 50.7944 36C50.7944 29.0649 46.4264 24.0133 46.2413 23.8011C45.1089 22.5141 43.1438 24.201 44.271 25.4854ZM21.5067 23.1891C20.2662 19.773 17.931 15.129 14.2119 14.2817C14.049 13.0719 13.5955 11.0366 12.3732 8.80586C14.8647 8.26714 16.4454 6.68571 17.2273 4.36371C18.4314 5.931 18.2581 7.83386 18.2164 12.8571C18.2164 14.5581 20.8226 14.5581 20.8226 12.8571V9.01929C22.6783 9.50657 24.4244 9.36386 26.0351 8.69143V13.6749C24.186 16.6924 22.7799 20.043 21.5067 23.1891ZM25.8188 5.90657C23.8068 7.11257 21.9055 6.72557 20.8995 6.354C21.4911 4.67871 25.0382 4.89471 25.8188 5.90657ZM15.0068 2.58943C14.6093 4.91014 13.3075 6.309 10.8759 6.41571C10.4393 5.15571 12.6755 2.35929 15.0068 2.58943ZM13.3166 16.7323C16.7451 17.1347 19.2054 24.0339 19.9547 26.9859C16.0571 36.2751 12.7211 40.1439 2.64143 35.2376C3.005 23.4399 11.5496 17.7737 13.3166 16.7323Z" fill="#12372A"/>
<path d="M32.551 27V34.3736L27.6799 42.7847L22.1638 46.0504L18.9399 43.9303C18.605 43.7104 18.1854 43.6551 17.8049 43.7798L13.8955 45.0656C12.2549 45.6056 13.0915 48.0459 14.7204 47.5046L18.0251 46.4181L20.6405 48.1384L19.5602 52.4018C19.1432 54.0489 21.6686 54.6801 22.0895 53.0267L23.2623 48.4007L27.3411 45.9861V59.1428C27.3411 60.8438 29.9474 60.8438 29.9474 59.1428V51.9609L34.2386 56.1947C35.4452 57.3981 37.3022 55.584 36.0786 54.3767L29.9448 48.3248V44.0563L34.3741 36.4089L37.5941 37.9967L36.4864 43.4623C36.1489 45.1363 38.7031 45.6493 39.0406 43.9676L39.8667 39.8944L42.0547 42.0531C43.277 43.254 45.1157 41.436 43.8973 40.2338L39.9879 36.3767C39.4315 35.9691 37.2579 34.9868 35.1573 33.9197V27C35.1573 25.299 32.551 25.299 32.551 27Z" fill="#12372A"/>
</svg>
