<svg width="47" height="40" viewBox="0 0 47 40" fill="none" xmlns="http://www.w3.org/2000/svg">
<path d="M22.8436 39.7294L3.48843 20.3724C-1.20473 15.6785 -1.15625 8.08888 3.59646 3.45384C8.35037 -1.18192 16.011 -1.1557 20.7273 3.56045L23.4997 6.33303L26.2738 3.56036C30.9852 -1.15498 38.6499 -1.18256 43.4043 3.45384L43.4044 3.45394C48.1567 8.09025 48.2043 15.6799 43.5106 20.3725L24.1554 39.7294C23.7943 40.0904 23.2043 40.09 22.8436 39.7294ZM4.89178 4.74941C0.862402 8.679 0.82129 15.1136 4.80015 19.0931L23.4994 37.7941L42.1988 19.0931C46.1782 15.1146 46.1376 8.68 42.1086 4.74923L42.1087 4.74932C38.0787 0.819375 31.5805 0.841042 27.5854 4.83963L24.155 8.26823C23.7888 8.6343 23.1981 8.62264 22.8434 8.26805L19.4155 4.8399C15.4192 0.843591 8.92428 0.817099 4.89178 4.74941Z" fill="#FFFFFF"/>
<path d="M27.7238 27.19L23.0508 16.4983L19.2803 25.3613C19.0128 25.9896 18.1643 26.1153 17.7223 25.5913L13.3897 20.4566H3.96184C3.45282 20.4566 3.04004 20.049 3.04004 19.5463C3.04004 19.0436 3.45282 18.6359 3.96184 18.6359H13.8214C14.095 18.6359 14.3544 18.7559 14.5296 18.9635L18.168 23.2754L22.1896 13.8223C22.3333 13.4847 22.668 13.2646 23.0395 13.2646C23.4072 13.2646 23.74 13.4805 23.8859 13.8142L28.4048 24.1536L31.9879 12.0978C32.1012 11.7165 32.4516 11.4519 32.8539 11.4439C33.2516 11.4354 33.6171 11.6865 33.7458 12.0631L35.9917 18.6358H43.038C43.547 18.6358 43.9598 19.0435 43.9598 19.5462C43.9598 20.0489 43.547 20.4566 43.038 20.4566H35.3299C34.9343 20.4566 34.5828 20.2074 34.4565 19.8372L32.9336 15.3805L29.4548 27.0856C29.3454 27.4537 29.0142 27.7145 28.6265 27.7379C28.24 27.7616 27.8781 27.5429 27.7238 27.19Z" fill="#FFFFFF"/>
</svg>
