<svg width="35" height="42" viewBox="0 0 35 42" fill="none" xmlns="http://www.w3.org/2000/svg">
<path fill-rule="evenodd" clip-rule="evenodd" d="M27.6993 25.9896C27.6993 26.317 27.4249 26.5847 27.0874 26.5847C26.7499 26.5847 26.475 26.317 26.475 25.9896C26.475 25.6615 26.7499 25.3945 27.0874 25.3945C27.4249 25.3946 27.6993 25.6615 27.6993 25.9896ZM7.29902 25.9896C7.29902 25.6615 7.57478 25.3945 7.9114 25.3945C8.24882 25.3945 8.52335 25.6615 8.52335 25.9896C8.52335 26.317 8.24882 26.5847 7.9114 26.5847C7.57478 26.5848 7.29902 26.317 7.29902 25.9896ZM33.7753 31.4377V18.0309H27.6994V23.7332C27.6994 24.0623 27.4262 24.3284 27.0875 24.3284C26.7492 24.3284 26.4751 24.0622 26.4751 23.7332V18.0309H18.1114V20.0433C19.9209 20.0297 21.5926 19.8664 23.3247 18.8777C23.6174 18.711 23.9914 18.8063 24.1627 19.0895C24.3343 19.3725 24.2363 19.7372 23.945 19.904C21.9642 21.0346 20.049 21.2184 18.1114 21.2335V23.5292C19.9209 23.5156 21.5926 23.3523 23.3247 22.3627C23.6174 22.1968 23.9914 22.2912 24.1627 22.5752C24.3343 22.8584 24.2363 23.2232 23.945 23.3897C21.9642 24.5205 20.049 24.7041 18.1114 24.7187V27.0141C19.9193 27.0006 21.5926 26.8382 23.3247 25.8485C23.6174 25.6826 23.9914 25.7771 24.1627 26.0603C24.3343 26.3442 24.2363 26.709 23.945 26.8748C21.9642 28.0064 20.049 28.1892 18.1114 28.2043V31.4377H26.4751V28.2452C26.4751 27.917 26.7492 27.65 27.0875 27.65C27.4262 27.65 27.6994 27.9171 27.6994 28.2452V31.4377H33.7753V31.4377ZM28.8838 34.6031C28.8838 36.1326 27.6035 37.3774 26.0302 37.3774H25.2911V32.6282H28.8838V34.6031ZM18.1113 40.8095V38.083C18.1113 37.7548 17.8377 37.4877 17.4994 37.4877C17.1619 37.4877 16.887 37.7548 16.887 38.083V40.8095H10.932V32.6281H24.0666V40.8095H18.1113ZM8.9686 37.3773C7.39531 37.3773 6.11501 36.1325 6.11501 34.6031V32.628H9.70771V37.3772L8.9686 37.3773ZM1.22433 18.0309V31.4377H7.29902V28.2453C7.29902 27.9171 7.5739 27.6501 7.9114 27.6501C8.24969 27.6501 8.52335 27.9172 8.52335 28.2453V31.4377H16.887V28.2044C14.9508 28.19 13.0354 28.0064 11.0534 26.8749C10.7625 26.7091 10.6645 26.3443 10.8358 26.0604C11.0073 25.7773 11.3827 25.6828 11.6737 25.8486C13.4071 26.8383 15.0784 27.0014 16.887 27.015V24.7194C14.9491 24.7041 13.0354 24.5205 11.0534 23.3896C10.7625 23.2231 10.6645 22.8583 10.8358 22.5751C11.0073 22.2912 11.3827 22.1968 11.6737 22.3626C13.4062 23.3523 15.0784 23.5164 16.887 23.5291V21.2334C14.9491 21.2191 13.0354 21.0345 11.0534 19.9039C10.7625 19.7371 10.6645 19.3724 10.8358 19.0894C11.0073 18.8062 11.3827 18.711 11.6737 18.8776C13.4062 19.8663 15.0791 20.0296 16.887 20.0432V18.0308H8.52335V23.7331C8.52335 24.0622 8.24969 24.3283 7.9114 24.3283C7.5739 24.3283 7.29902 24.0621 7.29902 23.7331V18.0308H1.22433V18.0309ZM8.9686 15.7277H26.0301C26.9458 15.7277 27.7836 16.1529 28.3125 16.8407H6.68576C7.21506 16.1529 8.053 15.7277 8.9686 15.7277ZM34.3876 16.8407H29.7303C29.0673 15.4471 27.6322 14.5375 26.0302 14.5375H8.9686C7.36645 14.5375 5.93108 15.4472 5.2685 16.8407H0.611947C0.27322 16.8407 0 17.1068 0 17.4357V32.033C0 32.3619 0.273308 32.6281 0.611947 32.6281H4.89024V34.6031C4.89024 36.789 6.71996 38.5677 8.9686 38.5677H9.70771V41.4048C9.70771 41.7329 9.98225 42 10.3197 42H24.6786C25.0173 42 25.291 41.7329 25.291 41.4048V38.5677H26.0301C28.2783 38.5677 30.108 36.789 30.108 34.6031V32.6281H34.3876C34.725 32.6281 35 32.3619 35 32.033V17.4358C35 17.1068 34.7251 16.8407 34.3876 16.8407ZM17.4994 1.1902C20.2727 1.1902 22.5292 3.38364 22.5292 6.07956C22.5292 8.77487 20.2728 10.9683 17.4994 10.9683C14.726 10.9683 12.4696 8.77487 12.4696 6.07956C12.4696 3.38364 14.726 1.1902 17.4994 1.1902ZM17.4994 12.1585C20.9476 12.1585 23.7535 9.43123 23.7535 6.07956C23.7535 2.72729 20.9477 0 17.4994 0C14.0507 0 11.2452 2.72729 11.2452 6.07956C11.2452 9.43114 14.0507 12.1585 17.4994 12.1585Z" fill="#FFFFFF"/>
</svg>
