<svg width="80" height="60" viewBox="0 0 80 60" fill="none" xmlns="http://www.w3.org/2000/svg">
<path d="M73.3333 0H6.66672C2.98984 0 0 2.98984 0 6.66672V53.3334C0 57.0102 2.98984 60 6.66672 60H73.3334C77.0102 60 80 57.0102 80 53.3333V6.66672C80 2.98984 77.0102 0 73.3333 0ZM6.66672 3.33328H73.3334C73.5791 3.33328 73.7955 3.42281 74.0259 3.47344C68.2542 8.75578 49.1161 26.2639 42.4188 32.2981C41.8947 32.7702 41.05 33.3333 40.0002 33.3333C38.9503 33.3333 38.1056 32.7702 37.5798 32.2966C30.8831 26.2633 11.7439 8.75422 5.97312 3.47375C6.20406 3.42313 6.42094 3.33328 6.66672 3.33328ZM3.33328 53.3333V6.66672C3.33328 6.34016 3.43172 6.04391 3.51984 5.74547C7.93734 9.78859 21.2911 22.0048 29.9498 29.8787C21.3192 37.2923 7.96203 49.9561 3.50937 54.202C3.43078 53.9186 3.33328 53.6414 3.33328 53.3333ZM73.3333 56.6667H6.66672C6.40047 56.6667 6.16375 56.5739 5.91516 56.5145C10.5162 52.1283 23.9584 39.3917 32.4373 32.1381C33.5427 33.1408 34.5523 34.055 35.3483 34.7722C36.722 36.0125 38.33 36.6667 40 36.6667C41.67 36.6667 43.278 36.0123 44.65 34.7738C45.4463 34.0563 46.4567 33.1412 47.5627 32.1381C56.042 39.3909 69.4823 52.1266 74.0848 56.5145C73.8363 56.5739 73.5998 56.6667 73.3333 56.6667ZM76.6667 53.3333C76.6667 53.6413 76.5692 53.9186 76.4908 54.202C72.0364 49.9539 58.6808 37.2916 50.0503 29.8789C58.7094 22.005 72.0611 9.78984 76.4802 5.74516C76.5683 6.04359 76.6667 6.34 76.6667 6.66656V53.3333Z" fill="#12372A"/>
</svg>
