<svg width="42" height="42" viewBox="0 0 42 42" fill="none" xmlns="http://www.w3.org/2000/svg">
<path d="M31.1639 13.7671L32.9616 11.9606V9.86481L41.7954 0.987808L40.8124 0L31.9786 8.877H29.8931L28.0953 10.6836L25.3146 7.88919L7.93487 25.354L5.84931 23.2582L2.78075 26.3418L6.95188 30.5333L3.76375 33.7371L3.06856 33.0385L0 36.1221L5.84931 42L8.91787 38.9164L8.22268 38.2178L11.4108 35.0141L15.5819 39.2056L18.6505 36.1221L16.5649 34.0263L33.9446 16.5615L31.1639 13.7671ZM30.4687 10.2742H31.5713V11.3821L30.1809 12.7793L29.0783 11.6714L30.4687 10.2742ZM5.84931 40.0244L1.96599 36.1221L3.06856 35.0141L6.95188 38.9164L5.84931 40.0244ZM7.23968 37.23L4.74674 34.7249L7.93487 31.5211L10.4278 34.0263L7.23968 37.23ZM16.6845 36.1221L15.5819 37.23L12.3938 34.0263L7.93487 29.5455L4.74674 26.3418L5.84931 25.2338L6.95188 26.3418L15.5819 35.0141L16.6845 36.1221ZM15.5819 33.0385L8.91787 26.3418L11.4108 23.8366L14.3953 26.8357L15.3782 25.8479L12.3938 22.8488L14.8867 20.3437L19.2616 24.7399L20.2446 23.7521L15.8697 19.3559L18.3627 16.8507L21.3471 19.8498L22.3301 18.862L19.3457 15.8629L21.8386 13.3578L26.2134 17.754L27.1964 16.7662L22.8216 12.37L25.3146 9.86481L27.1123 11.6714L30.1809 14.7549L31.9786 16.5615L15.5819 33.0385Z" fill="#FFFFFF"/>
<path d="M41.22 9.2011H41.2193L39.2185 7.19055L37.2178 9.2011C36.178 10.245 36.1773 11.9382 37.2161 12.983C37.7155 13.4853 38.3932 13.7674 39.0996 13.7671H39.3381C40.8078 13.7676 41.9997 12.5708 42.0002 11.0938C42.0005 10.3838 41.7198 9.70286 41.22 9.2011ZM40.2358 11.9958C39.9975 12.2352 39.6744 12.3697 39.3374 12.3698H39.099C38.3967 12.3696 37.8276 11.7973 37.8279 11.0917C37.828 10.753 37.9619 10.4283 38.2001 10.1888L39.2185 9.16608L40.2363 10.1888C40.7327 10.688 40.7326 11.4969 40.2358 11.9958Z" fill="#FFFFFF"/>
</svg>
