<svg width="26" height="42" viewBox="0 0 26 42" fill="none" xmlns="http://www.w3.org/2000/svg">
<path d="M22.0547 30.0858C18.4997 35.7897 13.2995 41.9998 7.51315 42C6.49927 42 5.46759 41.8093 4.4231 41.3918C1.15812 40.0834 -0.290933 37.0676 0.115599 32.4283C0.14269 32.1157 0.434581 31.8824 0.758637 31.9095C1.08656 31.9355 1.33003 32.2102 1.30251 32.5229C0.938983 36.6741 2.11042 39.2327 4.88415 40.3441C11.101 42.8299 17.0945 35.8212 21.0307 29.5058C27.8239 18.58 24.5365 8.71882 18.2647 3.79285C14.3648 0.729721 9.33029 0.280518 5.43895 2.64703C1.85301 4.82857 0.409812 8.69773 1.57781 12.9975C1.66028 13.3012 1.46901 13.6112 1.15081 13.6898C0.833372 13.7696 0.506994 13.5862 0.424948 13.2825C-0.859578 8.5541 0.816344 4.11187 4.79824 1.68916C9.13326 -0.947652 14.716 -0.466375 19.0219 2.91577C25.6859 8.14993 29.2084 18.5808 22.0547 30.0858ZM19.401 26.236C19.4765 26.2663 19.5546 26.2807 19.6317 26.2807C19.8643 26.2807 20.085 26.15 20.181 25.9326C22.942 19.6742 22.4372 13.183 18.8311 8.56903C16.4441 5.51534 13.0812 3.81368 10.0504 4.12934C6.66921 4.48035 5.21363 6.2852 4.58805 7.73748C3.01791 11.3825 4.91985 16.5738 7.50619 19.6077C7.71371 19.851 8.08885 19.8882 8.34428 19.6901C8.59936 19.4921 8.63814 19.1343 8.43062 18.891C7.39189 17.6727 6.57745 16.2681 6.02678 14.8383C8.82847 15.0192 11.0764 15.5446 12.6998 16.4113C15.6858 18.0109 15.9625 20.6662 15.8615 22.1066C15.6609 24.9724 13.711 27.8966 11.4238 28.7639C10.2679 29.1994 9.21917 28.8374 8.62223 28.3545C8.10656 27.9375 7.86464 27.3971 7.97498 26.9087C8.13254 26.2111 8.96676 25.6222 10.3237 25.251C10.64 25.1643 10.8227 24.8497 10.7321 24.5483C10.6411 24.2464 10.3082 24.0725 9.99543 24.1587C7.56742 24.8232 6.95809 26.0171 6.8106 26.6696C6.6066 27.5745 6.99568 28.5282 7.85157 29.2209C8.56074 29.7946 9.45276 30.0935 10.3667 30.0935C10.8677 30.0933 11.3752 30.0036 11.8625 29.8201C14.5875 28.7872 16.8174 25.5035 17.05 22.1823C17.2568 19.2341 15.9188 16.8327 13.2822 15.4203C11.385 14.4074 8.88248 13.8377 5.64364 13.6756C5.07224 11.653 5.04524 9.66619 5.68991 8.16929C6.42161 6.47133 7.93172 5.49204 10.1794 5.25882C12.7514 4.99058 15.773 6.5573 17.8762 9.248C19.4855 11.3069 22.8244 17.0113 19.0833 25.4921C18.9554 25.7812 19.0979 26.1143 19.401 26.236Z" fill="#FFFFFF"/>
</svg>
