<svg width="80" height="72" viewBox="0 0 80 72" fill="none" xmlns="http://www.w3.org/2000/svg">
<path d="M42.4008 16.7544C47.0084 16.7544 50.7572 12.9965 50.7572 8.37722C50.7572 3.75799 47.0086 0 42.4008 0C37.793 0 34.0445 3.75815 34.0445 8.37722C34.0445 12.9963 37.7932 16.7544 42.4008 16.7544ZM42.4008 2.27285C45.7584 2.27285 48.49 5.01114 48.49 8.37722C48.49 11.7433 45.7585 14.4816 42.4008 14.4816C39.0431 14.4816 36.3116 11.7433 36.3116 8.37722C36.3116 5.01114 39.0432 2.27285 42.4008 2.27285ZM76.5895 57.753C78.656 56.2265 80 53.771 80 51.0061C80 46.387 76.2513 42.6288 71.6436 42.6288C67.0358 42.6288 63.2871 46.3868 63.2871 51.0061C63.2871 53.771 64.6311 56.2265 66.6976 57.753C64.9862 58.2292 63.673 59.6734 63.3849 61.4584H59.6275C60.9072 60.1263 61.6965 58.3178 61.6965 56.3268C61.6965 52.2439 58.3832 48.9223 54.3101 48.9223L53.0659 48.9227V29.821C53.0659 24.1738 48.4828 19.5793 42.8494 19.5793C39.7663 19.5793 37 20.9574 35.1253 23.129L18.6926 39.6029C18.434 39.8621 18.2141 40.15 18.034 40.4588L14.3124 38.306C12.2998 37.1412 9.71741 37.8349 8.5553 39.8524C7.99417 40.8268 7.84599 41.965 8.13798 43.0573C8.42996 44.1497 9.12599 45.0611 10.098 45.6238L26.7843 55.2814H7.61117C5.28729 55.2814 3.39676 57.1768 3.39676 59.5063C3.39676 60.2103 3.57036 60.8739 3.87547 61.4582H2.86753C1.28632 61.4584 0 62.7479 0 64.3329V69.1255C0 70.7105 1.28632 72 2.86737 72H77.0946C78.6756 72 79.9619 70.7105 79.9619 69.1255V64.3329C79.9619 64.3266 79.961 64.3204 79.961 64.3141H79.9619V62.1974C79.9619 60.0806 78.5317 58.2934 76.5895 57.753ZM65.5545 51.0061C65.5545 47.6401 68.286 44.9017 71.6437 44.9017C75.0015 44.9017 77.7328 47.6401 77.7328 51.0061C77.7328 54.372 75.0013 57.1104 71.6436 57.1104C68.2858 57.1104 65.5545 54.3721 65.5545 51.0061ZM67.9266 59.8575H75.3605C76.407 59.8575 77.2946 60.5515 77.59 61.5045C77.4287 61.4761 77.2636 61.4585 77.0944 61.4585H65.7137C66.0233 60.5296 66.8975 59.8575 67.9266 59.8575ZM42.8497 21.8521C47.2329 21.8521 50.799 25.427 50.799 29.821V48.9232L39.0857 48.9261L45.3832 45.1059C46.8288 44.2289 47.784 42.9545 48.222 41.3182L49.2996 37.2919C49.4619 36.6857 49.1032 36.0624 48.4986 35.8998C47.8926 35.7371 47.2722 36.0968 47.11 36.7029L46.0324 40.7291C45.747 41.7947 45.1509 42.5904 44.2094 43.1613L33.3972 49.7201C32.4782 50.2774 31.2789 49.9805 30.7234 49.0597C30.1679 48.1385 30.4636 46.9362 31.3823 46.3792L41.8648 40.0258C42.1151 39.8738 42.2975 39.6308 42.3733 39.3473L44.7689 30.3844C44.9308 29.7782 44.572 29.1551 43.9673 28.9926C43.3631 28.8304 42.7409 29.1902 42.5789 29.7962L40.3015 38.3174L34.9006 41.5908V29.8209C34.9006 27.869 35.6053 26.0798 36.7717 24.6928L36.8445 24.6198C36.8983 24.5659 36.9453 24.5078 36.9859 24.4469C38.4403 22.8535 40.5304 21.8521 42.8497 21.8521ZM28.473 46.4966L25.469 44.759L32.6332 37.577V42.9651L30.2092 44.4341C29.3896 44.9311 28.7998 45.6655 28.473 46.4966ZM20.2955 41.2098L32.6849 28.7896C32.6508 29.1289 32.6332 29.473 32.6332 29.821V34.3632L23.0494 43.9708C22.29 44.7319 21.0551 44.7319 20.2955 43.9706C19.9302 43.6044 19.7289 43.1143 19.7289 42.5904C19.7291 42.0665 19.9302 41.5762 20.2955 41.2098ZM5.66397 59.5065C5.66397 58.4301 6.53749 57.5545 7.61117 57.5545H31.0147C31.5278 57.5545 31.9768 57.209 32.1098 56.7122C32.2424 56.2154 32.0257 55.6912 31.5815 55.4339L11.2314 43.6553C10.7838 43.3964 10.463 42.9753 10.3278 42.4691C10.1926 41.9632 10.2604 41.4375 10.5189 40.9888C10.7772 40.5401 11.1972 40.2185 11.7022 40.0829C12.2071 39.9474 12.7312 40.0154 13.1791 40.2747L17.4661 42.7543C17.5062 43.8235 17.9377 44.821 18.6928 45.5777C19.4863 46.3732 20.5446 46.8115 21.6726 46.8115C22.3712 46.8115 23.0429 46.6432 23.6416 46.3263L28.2871 49.0133C28.3851 49.4341 28.5487 49.8466 28.7833 50.2359C29.5746 51.5475 30.9689 52.274 32.3968 52.2738C33.1391 52.2738 33.8904 52.0775 34.5707 51.6652L35.3373 51.2001L54.3106 51.1954C57.1333 51.1954 59.4295 53.4974 59.4295 56.327C59.4295 59.1565 57.1331 61.4585 54.3106 61.4585H38.2036C37.1299 61.4585 36.2565 60.5829 36.2565 59.5067C36.2565 58.4301 37.13 57.5546 38.2036 57.5546H53.9882C54.6143 57.5546 55.1218 57.0458 55.1218 56.4182C55.1218 55.7906 54.6143 55.2818 53.9882 55.2818H38.2036C35.8797 55.2818 33.9893 57.1772 33.9893 59.5067C33.9893 60.2106 34.1629 60.8743 34.4679 61.4585H7.61117C6.53733 61.4584 5.66397 60.5827 5.66397 59.5065ZM77.6947 69.1255C77.6947 69.4573 77.4256 69.7272 77.0946 69.7272H2.86737C2.53636 69.7272 2.26721 69.4573 2.26721 69.1255V64.3329C2.26721 64.0011 2.53636 63.7312 2.86737 63.7312H77.0946C77.4256 63.7312 77.6947 64.0011 77.6947 64.3329V69.1255Z" fill="#12372A"/>
</svg>
