<svg width="60" height="60" viewBox="0 0 60 60" fill="none" xmlns="http://www.w3.org/2000/svg">
<path d="M12.1587 39.884C18.0991 46.9581 25.25 52.528 33.4118 56.4691C36.5193 57.9362 40.675 59.6768 45.305 59.9751C45.5921 59.9876 45.8666 60 46.1537 60C49.2611 60 51.7571 58.9308 53.7913 56.7302C53.8038 56.7178 53.8287 56.6929 53.8412 56.668C54.565 55.7978 55.3887 55.0145 56.2498 54.1815C56.8364 53.622 57.4354 53.0377 58.0095 52.4409C60.6677 49.6809 60.6677 46.1749 57.9845 43.5019L50.4841 36.0298C49.2112 34.712 47.6887 34.0157 46.0913 34.0157C44.4939 34.0157 42.9588 34.712 41.6485 36.0174L37.1807 40.4683C36.7689 40.2321 36.3446 40.0207 35.9452 39.8218C35.446 39.5731 34.9843 39.3369 34.5724 39.0758C30.504 36.5023 26.81 33.1455 23.2782 28.8313C21.4936 26.581 20.2955 24.6913 19.4594 22.7642C20.6325 21.7074 21.7307 20.6009 22.7915 19.5193C23.1659 19.1339 23.5528 18.7484 23.9396 18.363C25.2875 17.0203 26.0113 15.4662 26.0113 13.8873C26.0113 12.3083 25.2999 10.7542 23.9396 9.41152L20.2207 5.70659C19.7839 5.27145 19.372 4.84874 18.9477 4.41359C18.1241 3.56817 17.263 2.69789 16.4143 1.91463C15.1289 0.658931 13.6189 0 12.0215 0C10.4365 0 8.91399 0.658931 7.57865 1.92706L2.91121 6.57688C1.21396 8.26772 0.253014 10.3191 0.0533375 12.6937C-0.183778 15.6651 0.365332 18.823 1.78803 22.6399C3.97199 28.5454 7.26665 34.0282 12.1587 39.884ZM3.09841 12.9548C3.24816 11.3013 3.88463 9.92126 5.08269 8.72772L9.72517 4.10278C10.449 3.40655 11.2477 3.046 12.0215 3.046C12.7827 3.046 13.5565 3.40655 14.2678 4.12764C15.104 4.89847 15.8902 5.70659 16.7388 6.56444C17.1631 6.99959 17.5999 7.43473 18.0367 7.8823L21.7557 11.5872C22.5294 12.3581 22.9288 13.1413 22.9288 13.9121C22.9288 14.683 22.5294 15.4662 21.7557 16.2371C21.3688 16.6225 20.9819 17.0203 20.5951 17.4057C19.4344 18.5744 18.3487 19.6809 17.1506 20.7377C17.1257 20.7625 17.1132 20.775 17.0882 20.7998C16.0524 21.8317 16.2147 22.8139 16.4643 23.5599C16.4767 23.5972 16.4892 23.622 16.5017 23.6593C17.4626 25.9594 18.798 28.1475 20.8821 30.7584C24.626 35.3585 28.5696 38.9266 32.9126 41.6743C33.4492 42.0224 34.0233 42.2959 34.5599 42.5694C35.0591 42.8181 35.5209 43.0543 35.9327 43.3154C35.9826 43.3402 36.0201 43.3651 36.07 43.39C36.4818 43.6013 36.8812 43.7008 37.2805 43.7008C38.2789 43.7008 38.9279 43.0667 39.14 42.8554L43.8075 38.2056C44.5313 37.4845 45.3175 37.099 46.0913 37.099C47.0397 37.099 47.8135 37.6834 48.3002 38.2056L55.8255 45.69C57.3231 47.1819 57.3106 48.7982 55.7881 50.3771C55.2639 50.9366 54.7148 51.4712 54.1282 52.0307C53.2547 52.8761 52.3436 53.7464 51.52 54.7286C50.0848 56.2702 48.3751 56.9913 46.1661 56.9913C45.954 56.9913 45.7294 56.9789 45.5172 56.9664C41.4238 56.7053 37.6175 55.114 34.7596 53.7588C26.9972 50.0166 20.1832 44.7078 14.5299 37.9693C9.87493 32.3871 6.7425 27.1902 4.67086 21.6204C3.38544 18.2014 2.89873 15.4538 3.09841 12.9548Z" fill="#12372A"/>
</svg>
