<svg width="60" height="60" viewBox="0 0 60 60" fill="none" xmlns="http://www.w3.org/2000/svg">
<mask id="mask0_35_1502" style="mask-type:luminance" maskUnits="userSpaceOnUse" x="0" y="0" width="60" height="60">
<path d="M0 0H60V60H0V0Z" fill="white"/>
</mask>
<g mask="url(#mask0_35_1502)">
<path d="M30 58.2422C22.9688 47.6953 10.6641 33.3984 10.6641 21.0938C10.6641 10.4319 19.3382 1.75781 30 1.75781C40.6618 1.75781 49.3359 10.4319 49.3359 21.0938C49.3359 33.3984 37.0313 47.6953 30 58.2422Z" stroke="#12372A" stroke-width="2" stroke-miterlimit="10" stroke-linecap="round" stroke-linejoin="round"/>
<path d="M30 29.8824C25.1539 29.8824 21.2109 25.9394 21.2109 21.0934C21.2109 16.2473 25.1539 12.3043 30 12.3043C34.8461 12.3043 38.7891 16.2473 38.7891 21.0934C38.7891 25.9394 34.8461 29.8824 30 29.8824Z" stroke="#12372A" stroke-width="2" stroke-miterlimit="10" stroke-linecap="round" stroke-linejoin="round"/>
</g>
</svg>
