<svg width="35" height="24" viewBox="0 0 35 24" fill="none" xmlns="http://www.w3.org/2000/svg">
<path d="M0.465801 13.0789L11.6023 23.5789C11.9023 23.8522 12.3042 24.0034 12.7213 23.9999C13.1385 23.9965 13.5375 23.8388 13.8325 23.5607C14.1274 23.2825 14.2947 22.9063 14.2984 22.513C14.302 22.1197 14.1416 21.7408 13.8518 21.4579L5.43108 13.5184H33.4091C33.831 13.5184 34.2357 13.3604 34.534 13.0791C34.8324 12.7978 35 12.4163 35 12.0184C35 11.6206 34.8324 11.2391 34.534 10.9578C34.2357 10.6765 33.831 10.5184 33.4091 10.5184H5.43108L13.8518 2.57893C14.0038 2.44056 14.125 2.27505 14.2084 2.09204C14.2917 1.90903 14.3356 1.7122 14.3375 1.51303C14.3393 1.31386 14.2991 1.11635 14.2191 0.932003C14.1391 0.747658 14.0209 0.580179 13.8716 0.439341C13.7222 0.298502 13.5446 0.18712 13.349 0.111698C13.1535 0.0362778 12.944 -0.00167465 12.7328 5.53131e-05C12.5215 0.00178719 12.3128 0.0431671 12.1187 0.12178C11.9246 0.200394 11.749 0.314665 11.6023 0.457932L0.465801 10.9579C0.167549 11.2392 0 11.6207 0 12.0184C0 12.4162 0.167549 12.7976 0.465801 13.0789Z" fill="#12372A"/>
</svg>
