<svg width="18" height="18" viewBox="0 0 18 18" fill="none" xmlns="http://www.w3.org/2000/svg">
<path d="M10.1993 3.59999C10.1993 1.61531 8.58411 0 6.59957 0C4.61503 0 2.9998 1.61531 2.9998 3.59999C2.9998 3.70056 3.00332 3.80224 3.00976 3.90525C3.02737 4.31232 3.64107 4.27453 3.60855 3.86829C3.60288 3.77691 3.59919 3.68726 3.59919 3.59995C3.59919 1.93956 4.93869 0.59994 6.59899 0.59994C8.25929 0.59994 9.59879 1.93954 9.59879 3.59995C9.59879 3.97134 9.54802 4.37598 9.45232 4.79585C9.40208 4.80152 9.34764 4.81024 9.29823 4.8234V4.49997C9.29883 4.33424 9.16515 4.19937 8.99942 4.19878H8.39947C7.72104 4.19878 7.48254 3.50563 7.48254 3.50563C7.44044 3.37762 7.31831 3.29368 7.18373 3.29995C7.05974 3.30562 6.9524 3.38772 6.91363 3.50563C6.91363 3.50563 6.67412 4.19878 5.99904 4.19878H4.19857C4.03283 4.19939 3.89911 4.33424 3.89975 4.49997V4.82104C3.2999 4.67512 2.69982 5.09632 2.69982 5.69528C2.69982 6.5726 3.31727 7.12147 4.05062 7.19174C4.20256 7.62786 4.46342 8.01103 4.7997 8.31207V9.90053C4.79964 9.93273 4.8048 9.96483 4.81494 9.99545C5.09435 10.6849 5.75134 11.1005 6.60017 11.1005C7.44901 11.1005 8.10921 10.6822 8.38482 9.99545C8.39514 9.96483 8.40051 9.93273 8.40063 9.90053V8.31324C8.73694 8.01266 8.99853 7.62952 9.14999 7.1935C9.84316 7.12309 10.4993 6.59298 10.4993 5.69497C10.488 5.34863 10.2953 5.07941 10.0388 4.92886C10.1419 4.47562 10.1993 4.02531 10.1993 3.59999ZM12.5986 1.50058V1.7994H12.2998C11.8064 1.7994 11.3987 2.20774 11.3987 2.70115V4.8C11.3987 6.52196 12.7168 7.93339 14.3991 8.08476V12.3012C14.3991 12.8049 14.004 13.2 13.5003 13.2H13.1839C13.0305 11.1855 11.3534 9.59997 9.29939 9.59997C8.8939 9.59431 8.8939 10.2055 9.29939 10.2C11.0313 10.2 12.434 11.5094 12.5839 13.2H9.55602C9.42174 12.6853 8.95593 12.3012 8.40063 12.3012C7.74148 12.3012 7.20012 12.8396 7.20012 13.4988C7.20012 14.158 7.74148 14.6994 8.40063 14.6994C8.95543 14.6994 9.42067 14.3145 9.55543 13.8H13.5003C14.326 13.8 14.9996 13.1269 14.9996 12.3012V8.08476C16.681 7.93228 18 6.52115 18 4.8V2.70115C18 2.20774 17.5917 1.7994 17.0983 1.7994H16.7995V1.50058C16.7995 1.09233 16.1995 1.09436 16.1995 1.50058V2.70115C16.2081 3.0924 16.7908 3.0924 16.7995 2.70115V2.4H17.0983C17.2697 2.4 17.4 2.52978 17.4 2.70115V4.8C17.4 6.30099 16.1988 7.49998 14.6979 7.49998C13.197 7.49998 11.9986 6.30099 11.9986 4.8V2.70115C11.9986 2.52978 12.1284 2.4 12.2998 2.4H12.5986V2.70115C12.5986 3.10154 13.1991 3.10154 13.1991 2.70115V1.50058C13.1991 1.1033 12.5986 1.08871 12.5986 1.50058ZM7.20012 4.20235C7.39082 4.45894 7.77553 4.79883 8.40004 4.79883H8.69885V6.30058C8.69884 7.46917 7.76809 8.39999 6.59957 8.39999C5.43106 8.39999 4.50029 7.46917 4.50029 6.30058V4.79883H5.99961C6.62508 4.79883 6.98474 4.47252 7.20012 4.20235ZM9.2865 6.55605C9.31035 6.20855 9.29881 5.85594 9.29881 5.49489C9.52194 5.26457 9.89819 5.46236 9.89701 5.70701C9.89486 6.15862 9.62194 6.45751 9.2865 6.55605ZM3.91323 6.55605C3.5778 6.45752 3.30272 6.15699 3.30272 5.70701C3.30272 5.4109 3.72136 5.29437 3.90033 5.49375C3.89824 5.84014 3.89512 6.22704 3.91323 6.55605ZM5.39965 8.71989C5.76097 8.899 6.16838 9 6.59957 9C7.03114 9 7.43827 8.89883 7.80008 8.71989V9.82731C7.80008 9.82731 7.55073 10.5006 6.60015 10.5006C5.64958 10.5006 5.39965 9.82731 5.39965 9.82731V8.71989ZM3.89975 9.59997C1.74447 9.59997 0 11.3446 0 13.5V17.7C1.79138e-05 17.8657 0.134313 18 0.29998 18H2.40922H10.8087H12.8992C13.0648 18 13.1991 17.8657 13.1991 17.7V14.7C13.2048 14.2943 12.5935 14.2943 12.5992 14.7V15.6006H11.0999V14.6994C11.0999 14.2747 10.4999 14.3086 10.4999 14.6994V17.4H2.70041V14.6994C2.70041 14.2946 2.10045 14.2937 2.10045 14.6994V15.6006H0.599961V13.5C0.599961 11.6666 2.06648 10.2 3.89975 10.2C4.30524 10.2057 4.30524 9.59442 3.89975 9.59997ZM8.40063 12.8988C8.73553 12.8988 9.00059 13.1639 9.00059 13.4988C9.00059 13.8337 8.73553 14.0994 8.40063 14.0994C8.06572 14.0994 7.80008 13.8337 7.80008 13.4988C7.80008 13.1639 8.06572 12.8988 8.40063 12.8988ZM0.599961 16.2011H2.10045V17.4H0.599961V16.2011ZM11.0999 16.2011H12.5992V17.4H11.0999V16.2011Z" fill="white"/>
</svg>
