<svg width="14" height="18" viewBox="0 0 14 18" fill="none" xmlns="http://www.w3.org/2000/svg">
<path d="M13.1721 8.03567C13.5791 7.75442 14 7.46369 14 7.02135C14 6.57888 13.5791 6.28816 13.1721 6.00691C12.9523 5.85516 12.6513 5.64724 12.6153 5.5117C12.5757 5.36325 12.7304 5.03544 12.8548 4.77218C13.0618 4.33328 13.2761 3.87954 13.0627 3.50944C12.8463 3.1344 12.3426 3.09388 11.8557 3.05475C11.5696 3.03181 11.2136 3.00311 11.1094 2.89874C11.0053 2.79437 10.9768 2.43731 10.9539 2.1503C10.9149 1.66195 10.8747 1.157 10.5007 0.940017C10.1314 0.725921 9.67919 0.940703 9.24168 1.14834C8.97903 1.27304 8.65229 1.42822 8.50399 1.38853C8.36883 1.35242 8.16165 1.05057 8.01033 0.830291C7.72974 0.422149 7.43971 0 6.99849 0C6.55742 0 6.26752 0.422149 5.98721 0.830291C5.83589 1.0507 5.6287 1.35242 5.49368 1.38867C5.34538 1.4285 5.01905 1.27331 4.75641 1.14862C4.31862 0.940978 3.86617 0.726333 3.4974 0.940703C3.12356 1.15768 3.08343 1.66264 3.04468 2.15085C3.02195 2.43786 2.9936 2.79492 2.88953 2.89929C2.78559 3.00366 2.42956 3.03236 2.14349 3.05529C1.65668 3.09457 1.15316 3.13508 0.93693 3.51013C0.723444 3.88037 0.937752 4.33396 1.14508 4.77273C1.26942 5.03585 1.42416 5.36352 1.38458 5.51197C1.34857 5.64752 1.04758 5.85529 0.827928 6.00704C0.420948 6.28829 0 6.57902 0 7.02135C0 7.46355 0.420948 7.75442 0.827928 8.03553C1.04771 8.18728 1.34857 8.39519 1.38458 8.5306C1.42416 8.67892 1.26942 9.00658 1.14494 9.26998C0.937752 9.70861 0.723444 10.1622 0.936793 10.5323C1.15302 10.9074 1.65654 10.9479 2.14349 10.9871C2.22285 10.9935 2.30737 11.0006 2.39063 11.0093L0.204312 16.2185C0.119684 16.4201 0.156109 16.6476 0.299484 16.8121C0.442995 16.9769 0.662917 17.0438 0.873254 16.9869L2.07543 16.6654L2.78559 17.7448C2.90406 17.9248 3.1088 18.0167 3.30925 17.9975C3.51725 17.9786 3.69733 17.847 3.77908 17.6542L5.78228 12.9254C6.13084 13.3799 6.44625 14.0427 6.99849 14.0427C7.55189 14.0427 7.86702 13.378 8.21687 12.9235L10.2209 17.6543C10.3027 17.847 10.4827 17.9786 10.6908 17.9975C10.8912 18.0167 11.0959 17.9248 11.2144 17.7448L11.93 16.6632L13.1267 16.9869C13.3372 17.0438 13.5569 16.9769 13.7005 16.8121C13.8439 16.6476 13.8803 16.4201 13.7958 16.2187L11.6097 11.0101C11.6926 11.0014 11.7767 10.9944 11.8557 10.988C12.3426 10.949 12.8462 10.9085 13.0625 10.5334C13.276 10.1632 13.0618 9.70943 12.8546 9.27053C12.7304 9.00713 12.5757 8.67946 12.6153 8.53115C12.6513 8.39547 12.9523 8.18755 13.1721 8.03567ZM3.25379 17.435L2.54376 16.3556C2.40828 16.1496 2.15792 16.0565 1.92398 16.1201L0.721253 16.4369L2.92294 11.1911C2.96666 11.2714 2.99175 11.4097 3.0048 11.4998C3.00905 11.5384 3.01858 11.5702 3.04427 11.8927C3.08302 12.3805 3.12301 12.8849 3.49685 13.1035C3.86645 13.3162 4.31848 13.1023 4.75545 12.8949C4.92443 12.815 5.11984 12.7222 5.27759 12.6768L3.25379 17.435ZM12.0762 16.1202C11.8408 16.0565 11.5908 16.1507 11.4561 16.3556L10.7372 17.4342L8.72213 12.6774C8.90354 12.7301 9.12701 12.841 9.35256 12.9466C9.84453 13.177 10.3747 13.3673 10.7029 12.9155C10.7094 12.9067 10.7177 12.8994 10.7238 12.8904C10.7253 12.888 10.7263 12.8853 10.7278 12.8828C10.8945 12.6266 10.9248 12.2551 10.9538 11.8923C10.9618 11.7915 10.9708 11.6823 10.9833 11.5782C10.9842 11.57 10.9851 11.5615 10.9861 11.5532C10.9899 11.5233 10.9942 11.4942 10.9988 11.4656C11.0056 11.4233 11.0131 11.3828 11.0219 11.3456C11.0257 11.3294 11.0302 11.3151 11.0344 11.3003C11.0456 11.2614 11.0577 11.2253 11.0725 11.1973C11.0737 11.1948 11.0752 11.1927 11.0765 11.1904L13.276 16.4443C12.6398 16.2725 12.043 16.1113 12.0762 16.1202ZM12.3477 9.51113C12.4653 9.76052 12.6431 10.1371 12.5769 10.2516C12.5079 10.3714 12.0885 10.405 11.8108 10.4274C11.586 10.4454 11.358 10.465 11.1555 10.5175C10.4987 10.654 10.4422 11.2387 10.3937 11.8482C10.3771 12.0568 10.3542 12.3455 10.2939 12.506C10.2103 12.7265 10.0152 12.6352 9.58423 12.4345C9.58317 12.4339 9.58204 12.4334 9.58094 12.4329C9.55594 12.421 9.54726 12.4172 9.48159 12.386C9.25992 12.2808 9.03421 12.175 8.8157 12.1218C8.7995 12.1179 8.7831 12.1127 8.76705 12.1093C8.76089 12.108 8.75493 12.1077 8.7488 12.1065C8.53611 12.0654 8.33835 12.0823 8.15665 12.2037C7.92173 12.3527 7.73221 12.6256 7.5483 12.8933C7.38767 13.127 7.14502 13.4802 6.99849 13.4802C6.85224 13.4802 6.60973 13.127 6.44923 12.8933C5.86808 12.0466 5.596 11.8851 4.6598 12.3187C4.59496 12.3487 4.55763 12.3659 4.51635 12.3854C4.26781 12.5034 3.89246 12.6814 3.77826 12.6152C3.65912 12.546 3.62585 12.1253 3.60366 11.847C3.51264 10.6984 3.30329 10.5164 2.18841 10.4264C1.91083 10.404 1.49139 10.3703 1.42238 10.2508C1.35637 10.1363 1.53412 9.75983 1.65188 9.51085C1.83251 9.12853 2.01915 8.7333 1.92658 8.38531C1.83702 8.04954 1.48578 7.80688 1.14617 7.57232C0.913103 7.41137 0.560898 7.16802 0.560898 7.02135C0.560898 6.87455 0.913103 6.63134 1.14603 6.47039C1.48578 6.2357 1.83702 5.99304 1.92658 5.65713C2.01915 5.30941 1.83251 4.91418 1.65188 4.53186C1.53425 4.28274 1.35637 3.90632 1.42251 3.79179C1.49139 3.67218 1.91083 3.63839 2.18841 3.61615C2.60525 3.5825 3.03633 3.54776 3.28638 3.29699C3.53643 3.04596 3.57066 2.61364 3.6038 2.19548C3.62598 1.91711 3.65926 1.49661 3.77839 1.4274C3.89246 1.36162 4.26795 1.53918 4.51649 1.65715C4.89773 1.83801 5.29183 2.02505 5.63856 1.93208C5.97338 1.84227 6.21534 1.49002 6.44923 1.14944C6.60973 0.915709 6.85224 0.562499 6.99849 0.562499C7.14502 0.562499 7.38781 0.915709 7.54844 1.14944C7.78233 1.49002 8.0243 1.84213 8.35911 1.93194C8.70611 2.02478 9.10049 1.83774 9.48159 1.65674C9.73 1.53891 10.1058 1.36066 10.2197 1.42685C10.3391 1.49606 10.3726 1.91684 10.3948 2.19534C10.4282 2.61337 10.4626 3.04568 10.7128 3.29658C10.963 3.54734 11.3941 3.58195 11.8109 3.61546C12.0885 3.63784 12.5081 3.67149 12.5771 3.7911C12.6432 3.90564 12.4655 4.28219 12.3478 4.53144C12.1674 4.91363 11.9807 5.309 12.0734 5.65685C12.1628 5.99276 12.5141 6.23542 12.8538 6.47012C13.0869 6.63107 13.4391 6.87441 13.4391 7.02135C13.4391 7.16816 13.0869 7.41151 12.8538 7.57259C12.5141 7.80715 12.1628 8.04995 12.0733 8.38586C11.9807 8.73371 12.1672 9.12894 12.3477 9.51113Z" fill="white"/>
<path d="M6.99977 2.8584C4.71085 2.8584 2.84863 4.7258 2.84863 7.02139C2.84863 9.31671 4.71085 11.1842 6.99977 11.1842C9.28869 11.1842 11.1509 9.31671 11.1509 7.02139C11.1509 4.7258 9.28869 2.8584 6.99977 2.8584ZM6.99977 10.6217C5.02006 10.6217 3.40953 9.00662 3.40953 7.02139C3.40953 5.03602 5.02006 3.4209 6.99977 3.4209C8.97949 3.4209 10.59 5.03602 10.59 7.02139C10.59 9.00662 8.97949 10.6217 6.99977 10.6217Z" fill="white"/>
<path d="M8.90795 6.10644H7.80245L7.45832 5.04983C7.39314 4.84988 7.20841 4.71558 6.99862 4.71558C6.78856 4.71571 6.60369 4.85043 6.53865 5.0508L6.19712 6.10644H5.09203C4.88197 6.10644 4.69724 6.24103 4.63233 6.44139C4.56729 6.64175 4.63781 6.85956 4.80761 6.98356L5.70168 7.63574L5.36043 8.69043C5.29566 8.89079 5.36632 9.10859 5.5364 9.23233C5.7062 9.35592 5.93489 9.35592 6.10469 9.23205L6.99821 8.58056L7.89611 9.2337C8.06733 9.35832 8.29599 9.35636 8.46441 9.23342C8.63421 9.10955 8.70473 8.89189 8.63996 8.69152L8.2983 7.63574L9.19237 6.98343C9.36217 6.85956 9.4327 6.64175 9.36765 6.44139C9.30274 6.24103 9.11801 6.10644 8.90795 6.10644ZM7.92268 7.214C7.75315 7.33787 7.68263 7.55554 7.7474 7.75576L8.03319 8.63851L7.28208 8.09222C7.19718 8.03042 7.09763 7.99952 6.99807 7.99952C6.89852 7.99952 6.79883 8.03042 6.71379 8.09249L5.96748 8.63673L6.25258 7.75576C6.31735 7.55554 6.24683 7.33787 6.07717 7.21386L5.33003 6.66894H6.25327C6.4636 6.66894 6.64847 6.53422 6.71324 6.33372L6.9989 5.45084L7.28674 6.33455C7.35179 6.53464 7.53651 6.66894 7.74644 6.66894H8.66995L7.92268 7.214Z" fill="white"/>
</svg>
