<svg width="26" height="21" viewBox="0 0 26 21" fill="none" xmlns="http://www.w3.org/2000/svg">
<path d="M11.3052 5.81812V1.51801C11.3052 1.21361 11.1168 0.938529 10.8284 0.819194C10.5411 0.70087 10.2048 0.760538 9.981 0.973925L1.1319 9.31727C0.979899 9.45986 0.894531 9.65606 0.894531 9.86135C0.894531 10.0667 0.979899 10.2628 1.1319 10.4054L9.981 18.7488C10.2069 18.9612 10.5421 19.0208 10.8284 18.9035C11.1168 18.7842 11.3052 18.5091 11.3052 18.2047V13.9066H12.7815C17.6079 13.9066 22.0574 16.4551 24.3926 20.553L24.4144 20.5914C24.5539 20.8382 24.8184 20.9858 25.0994 20.9858C25.164 20.9858 25.2285 20.9787 25.2931 20.9625C25.6387 20.8766 25.8802 20.5742 25.8802 20.2273C25.8802 12.3654 19.3663 5.95364 11.3052 5.81812Z" fill="#636363"/>
</svg>
