<svg width="1662" height="728" viewBox="0 0 1662 728" fill="none" xmlns="http://www.w3.org/2000/svg">
<mask id="mask0_34_495" style="mask-type:alpha" maskUnits="userSpaceOnUse" x="42" y="0" width="1620" height="728">
<rect x="42" width="1620" height="728" rx="30" fill="white"/>
</mask>
<g mask="url(#mask0_34_495)">
<g opacity="0.15">
<path d="M66.7706 687.233L111.733 686.34L130.333 705.605L136.643 698.633L119.057 680.451L135.012 644.067L183.76 643.1L204.502 596.141L184.068 554.817L202.632 512.678L182.193 471.13L198.577 433.751L241.676 432.896L259.717 469.449L243.33 506.685L216.907 507.21L217.126 517.005L249.2 516.368L267.763 474.189L308.812 473.375L308.592 463.579L267.543 464.394L249.978 428.962L276.254 399.661L269.633 392.741L242.39 423.083L197.428 423.975L178.835 405.037L172.529 412.172L190.109 430.109L174.149 466.248L125.401 467.215L104.666 514.501L125.104 555.988L106.542 598.208L126.974 639.471L110.584 676.564L67.4847 677.42L49.4438 640.866L65.8313 603.63L92.2541 603.105L92.0346 593.31L59.9613 593.947L41.3985 636.126L0.349484 636.941L0.568956 646.736L41.6179 645.921L59.1899 681.68L32.92 711.225L39.5343 717.859L66.7706 687.233ZM132.921 550.687L114.88 514.134L131.268 476.897L174.367 476.042L192.407 512.596L176.02 549.832L132.921 550.687ZM134.794 634.272L116.753 597.719L133.141 560.482L176.239 559.627L194.28 596.181L177.893 633.417L134.794 634.272Z" fill="#12372A"/>
<path d="M210.301 447.358L210.067 436.912L200.928 437.093L201.163 447.54L210.301 447.358Z" fill="#12372A"/>
<path d="M77.1384 617.203L76.9043 606.756L67.7654 606.938L67.9995 617.385L77.1384 617.203Z" fill="#12372A"/>
<path d="M107.795 652.478L107.575 642.649L68.5358 643.426L68.7553 653.255L107.795 652.478Z" fill="#12372A"/>
<path d="M172.616 484.074L172.396 474.245L133.357 475.023L133.577 484.852L172.616 484.074Z" fill="#12372A"/>
</g>
<g opacity="0.15">
<path d="M1590.4 687.233L1545.43 686.34L1526.83 705.605L1520.52 698.633L1538.11 680.451L1522.15 644.067L1473.41 643.1L1452.66 596.141L1473.1 554.817L1454.53 512.678L1474.97 471.13L1458.59 433.751L1415.49 432.896L1397.45 469.449L1413.84 506.685L1440.26 507.21L1440.04 517.005L1407.97 516.368L1389.4 474.189L1348.36 473.375L1348.57 463.579L1389.62 464.394L1407.19 428.962L1380.91 399.661L1387.53 392.741L1414.78 423.083L1459.74 423.975L1478.33 405.037L1484.64 412.172L1467.06 430.109L1483.02 466.248L1531.77 467.215L1552.5 514.501L1532.06 555.988L1550.63 598.208L1530.19 639.471L1546.58 676.564L1589.68 677.42L1607.72 640.866L1591.34 603.63L1564.91 603.105L1565.13 593.31L1597.21 593.947L1615.77 636.126L1656.82 636.941L1656.6 646.736L1615.55 645.921L1597.98 681.68L1624.25 711.225L1617.63 717.859L1590.4 687.233ZM1524.25 550.687L1542.29 514.134L1525.9 476.897L1482.8 476.042L1464.76 512.596L1481.15 549.832L1524.25 550.687ZM1522.37 634.272L1540.41 597.719L1524.03 560.482L1480.93 559.627L1462.89 596.181L1479.27 633.417L1522.37 634.272Z" fill="#12372A"/>
<path d="M1446.87 447.358L1447.1 436.912L1456.24 437.093L1456 447.54L1446.87 447.358Z" fill="#12372A"/>
<path d="M1580.03 617.203L1580.26 606.756L1589.4 606.938L1589.17 617.385L1580.03 617.203Z" fill="#12372A"/>
<path d="M1549.37 652.478L1549.59 642.649L1588.63 643.426L1588.41 653.255L1549.37 652.478Z" fill="#12372A"/>
<path d="M1484.55 484.074L1484.77 474.245L1523.81 475.023L1523.59 484.852L1484.55 484.074Z" fill="#12372A"/>
</g>
<g opacity="0.15">
<path d="M287.771 647.233L332.733 646.34L351.333 665.605L357.643 658.633L340.057 640.451L356.012 604.067L404.76 603.1L425.502 556.141L405.068 514.817L423.632 472.678L403.193 431.13L419.577 393.751L462.676 392.896L480.717 429.449L464.33 466.685L437.907 467.21L438.126 477.005L470.2 476.368L488.763 434.189L529.812 433.375L529.592 423.579L488.543 424.394L470.978 388.962L497.254 359.661L490.633 352.741L463.39 383.083L418.428 383.975L399.835 365.037L393.529 372.172L411.109 390.109L395.149 426.248L346.401 427.215L325.666 474.501L346.104 515.988L327.542 558.208L347.974 599.471L331.584 636.564L288.485 637.42L270.444 600.866L286.831 563.63L313.254 563.105L313.035 553.31L280.961 553.947L262.398 596.126L221.349 596.941L221.569 606.736L262.618 605.921L280.19 641.68L253.92 671.225L260.534 677.859L287.771 647.233ZM353.921 510.687L335.88 474.134L352.268 436.897L395.367 436.042L413.407 472.596L397.02 509.832L353.921 510.687ZM355.794 594.272L337.753 557.719L354.141 520.482L397.239 519.627L415.28 556.181L398.893 593.417L355.794 594.272Z" fill="#12372A"/>
<path d="M431.301 407.358L431.067 396.912L421.928 397.093L422.163 407.54L431.301 407.358Z" fill="#12372A"/>
<path d="M298.138 577.203L297.904 566.756L288.765 566.938L288.999 577.385L298.138 577.203Z" fill="#12372A"/>
<path d="M328.795 612.478L328.575 602.649L289.536 603.426L289.755 613.255L328.795 612.478Z" fill="#12372A"/>
<path d="M393.616 444.074L393.396 434.245L354.357 435.023L354.577 444.852L393.616 444.074Z" fill="#12372A"/>
</g>
<g opacity="0.15">
<path d="M1369.4 647.233L1324.43 646.34L1305.83 665.605L1299.52 658.633L1317.11 640.451L1301.15 604.067L1252.41 603.1L1231.66 556.141L1252.1 514.817L1233.53 472.678L1253.97 431.13L1237.59 393.751L1194.49 392.896L1176.45 429.449L1192.84 466.685L1219.26 467.21L1219.04 477.005L1186.97 476.368L1168.4 434.189L1127.36 433.375L1127.57 423.579L1168.62 424.394L1186.19 388.962L1159.91 359.661L1166.53 352.741L1193.78 383.083L1238.74 383.975L1257.33 365.037L1263.64 372.172L1246.06 390.109L1262.02 426.248L1310.77 427.215L1331.5 474.501L1311.06 515.988L1329.63 558.208L1309.19 599.471L1325.58 636.564L1368.68 637.42L1386.72 600.866L1370.34 563.63L1343.91 563.105L1344.13 553.31L1376.21 553.947L1394.77 596.126L1435.82 596.941L1435.6 606.736L1394.55 605.921L1376.98 641.68L1403.25 671.225L1396.63 677.859L1369.4 647.233ZM1303.25 510.687L1321.29 474.134L1304.9 436.897L1261.8 436.042L1243.76 472.596L1260.15 509.832L1303.25 510.687ZM1301.37 594.272L1319.41 557.719L1303.03 520.482L1259.93 519.627L1241.89 556.181L1258.27 593.417L1301.37 594.272Z" fill="#12372A"/>
<path d="M1225.87 407.358L1226.1 396.912L1235.24 397.093L1235 407.54L1225.87 407.358Z" fill="#12372A"/>
<path d="M1359.03 577.203L1359.26 566.756L1368.4 566.938L1368.17 577.385L1359.03 577.203Z" fill="#12372A"/>
<path d="M1328.37 612.478L1328.59 602.649L1367.63 603.426L1367.41 613.255L1328.37 612.478Z" fill="#12372A"/>
<path d="M1263.55 444.074L1263.77 434.245L1302.81 435.023L1302.59 444.852L1263.55 444.074Z" fill="#12372A"/>
</g>
</g>
</svg>
