<?xml version="1.0" encoding="utf-8"?>
<!-- Generator: Adobe Illustrator 25.2.0, SVG Export Plug-In . SVG Version: 6.00 Build 0)  -->
<svg version="1.1" id="Layer_1" xmlns="http://www.w3.org/2000/svg" xmlns:xlink="http://www.w3.org/1999/xlink" x="0px" y="0px"
	 viewBox="0 0 2300 500" style="enable-background:new 0 0 2300 500;" xml:space="preserve">
<style type="text/css">
	.st0{font-family:'Poppins-Medium';}
	.st1{font-size:142.3853px;}
	.st2{font-size:44.4757px;}
	.st3{fill:#03E0B6;}
	.st4{fill-rule:evenodd;clip-rule:evenodd;}
</style>
<path d="M717.26,99.01v43.9h-72.26v227.28H590.6V142.91h-72.26v-43.9H717.26z"/>
<path d="M915.14,278.89H757.79c1.29,15.54,6.73,27.72,16.32,36.52c9.58,8.81,21.37,13.21,35.35,13.21c20.2,0,34.58-8.67,43.13-26.03
	h58.67c-6.22,20.73-18.13,37.75-35.74,51.09c-17.62,13.34-39.24,20.01-64.88,20.01c-20.73,0-39.31-4.6-55.75-13.79
	c-16.45-9.19-29.27-22.21-38.46-39.05c-9.2-16.83-13.79-36.26-13.79-58.28c0-22.27,4.53-41.83,13.6-58.67
	c9.06-16.83,21.76-29.78,38.07-38.85c16.32-9.06,35.09-13.6,56.33-13.6c20.46,0,38.78,4.41,54.97,13.21
	c16.18,8.81,28.75,21.31,37.69,37.49c8.94,16.19,13.4,34.77,13.4,55.75C916.69,265.68,916.17,272.67,915.14,278.89z M860.36,242.37
	c-0.26-13.99-5.31-25.19-15.15-33.61c-9.85-8.41-21.89-12.63-36.13-12.63c-13.47,0-24.8,4.08-33.99,12.24
	c-9.2,8.16-14.83,19.49-16.9,33.99H860.36z"/>
<path d="M1082.97,160.98c12.17,6.35,21.76,14.57,28.75,24.67v-30.69h54.78v216.79c0,19.94-4.02,37.75-12.04,53.42
	c-8.03,15.67-20.08,28.1-36.13,37.3c-16.06,9.19-35.49,13.79-58.28,13.79c-30.57,0-55.62-7.13-75.18-21.37
	c-19.56-14.25-30.63-33.67-33.22-58.28h54c2.85,9.84,9,17.68,18.45,23.51c9.45,5.83,20.91,8.74,34.38,8.74
	c15.8,0,28.62-4.73,38.46-14.18c9.84-9.46,14.76-23.77,14.76-42.93v-33.41c-6.99,10.1-16.65,18.52-28.94,25.25
	c-12.31,6.73-26.36,10.1-42.15,10.1c-18.13,0-34.71-4.66-49.73-13.99c-15.02-9.32-26.88-22.47-35.55-39.43
	c-8.68-16.96-13.01-36.45-13.01-58.47c0-21.76,4.33-41.05,13.01-57.89c8.67-16.83,20.46-29.78,35.35-38.85
	c14.89-9.06,31.53-13.6,49.92-13.6C1056.68,151.46,1070.79,154.63,1082.97,160.98z M1103.95,228.58
	c-5.18-9.45-12.18-16.71-20.98-21.76c-8.81-5.05-18.26-7.58-28.36-7.58c-10.1,0-19.43,2.46-27.97,7.38
	c-8.55,4.92-15.48,12.11-20.79,21.56c-5.31,9.46-7.96,20.66-7.96,33.61c0,12.96,2.65,24.28,7.96,34
	c5.31,9.71,12.3,17.16,20.98,22.34c8.67,5.18,17.93,7.77,27.78,7.77c10.1,0,19.55-2.53,28.36-7.58c8.8-5.05,15.8-12.3,20.98-21.76
	c5.18-9.45,7.77-20.79,7.77-34C1111.72,249.36,1109.13,238.04,1103.95,228.58z"/>
<path d="M1218.75,203.91c8.67-16.83,20.46-29.78,35.35-38.85c14.89-9.06,31.53-13.6,49.92-13.6c16.06,0,30.11,3.24,42.15,9.71
	c12.04,6.48,21.69,14.64,28.94,24.48v-30.69h54.78v215.24h-54.78v-31.47c-6.99,10.1-16.65,18.45-28.94,25.06
	c-12.31,6.6-26.49,9.91-42.54,9.91c-18.13,0-34.65-4.66-49.54-13.99c-14.9-9.32-26.68-22.47-35.35-39.43
	c-8.68-16.96-13.01-36.45-13.01-58.47C1205.74,240.04,1210.07,220.75,1218.75,203.91z M1367.36,228.58
	c-5.18-9.45-12.18-16.71-20.98-21.76c-8.81-5.05-18.26-7.58-28.36-7.58s-19.43,2.46-27.97,7.38c-8.55,4.92-15.48,12.11-20.79,21.56
	c-5.31,9.46-7.96,20.66-7.96,33.61c0,12.96,2.65,24.28,7.96,34c5.31,9.71,12.3,17.16,20.98,22.34c8.67,5.18,17.93,7.77,27.78,7.77
	c10.1,0,19.55-2.53,28.36-7.58c8.8-5.05,15.8-12.3,20.98-21.76c5.18-9.45,7.77-20.79,7.77-34
	C1375.13,249.36,1372.54,238.04,1367.36,228.58z"/>
<text transform="matrix(1 0 0 1 1474.9524 255.549)" class="st0 st1">Healthcare</text>
<text transform="matrix(1 0 0 1 1474.9524 379.0149)" class="st0 st1">Limited</text>
<text transform="matrix(1 0 0 1 2004.26 320.2297)" class="st0 st2">TM</text>
<g>
	<path class="st3" d="M95.26,173.1c2.9,8.56,12.19,13.15,20.75,10.25c8.56-2.9,13.15-12.19,10.25-20.75l-4.73-13.95
		c-5.61-16.56-4.44-34.32,3.3-50c15.98-32.37,55.32-45.7,87.69-29.71c15.68,7.74,27.41,21.13,33.02,37.69l4.73,13.96
		c2.9,8.56,12.19,13.15,20.75,10.25c8.56-2.9,13.15-12.19,10.25-20.75l-4.73-13.96c-8.42-24.84-26.01-44.92-49.53-56.54
		C178.47,15.61,119.47,35.6,95.49,84.16c-11.61,23.52-13.37,50.15-4.96,75L95.26,173.1z"/>
	<path class="st3" d="M363.62,348.63c-2.9-8.56-12.19-13.15-20.75-10.25c-8.56,2.9-13.15,12.19-10.25,20.75l4.73,13.95
		c5.61,16.56,4.44,34.32-3.3,50c-15.98,32.37-55.32,45.7-87.69,29.71c-15.68-7.74-27.41-21.13-33.02-37.69l-4.73-13.96
		c-2.9-8.56-12.19-13.15-20.75-10.25c-8.56,2.9-13.15,12.19-10.25,20.75l4.73,13.96c8.42,24.84,26.01,44.92,49.53,56.54
		c48.55,23.97,107.56,3.98,131.53-44.57c11.61-23.52,13.37-50.15,4.96-75L363.62,348.63z"/>
</g>
<path class="st4" d="M443.46,187.83L443.46,187.83c-11.69-33.94-44.44-54.94-78.66-53.49l-83,28.6l-22.32-64.79
	c-14.24-41.33-59.7-63.49-101.03-49.25l0,0c-41.33,14.24-63.49,59.7-49.25,101.03l21.26,61.69l-61.69,21.26
	c-41.33,14.24-63.49,59.7-49.25,101.03l0,0c14.24,41.33,59.7,63.49,101.03,49.25l61.69-21.26l21.26,61.69
	c14.24,41.33,59.7,63.49,101.03,49.25l0,0c41.33-14.24,63.49-59.7,49.25-101.03l-21.92-63.61l78.53-27.06
	C441.03,261.98,455.71,223.38,443.46,187.83z M183.49,246.63c4.36-8.84,15.06-12.46,23.9-8.1c8.84,4.36,12.46,15.06,8.1,23.9
	c-4.36,8.84-15.06,12.46-23.9,8.1C182.75,266.17,179.12,255.47,183.49,246.63z M231.69,310.24c-4.36,8.84-15.06,12.46-23.9,8.1
	c-8.84-4.36-12.46-15.06-8.1-23.9s15.06-12.46,23.9-8.1C232.42,290.7,236.05,301.4,231.69,310.24z M231.29,230.44
	c4.36-8.84,15.06-12.46,23.9-8.1c8.84,4.36,12.46,15.06,8.1,23.9c-4.36,8.84-15.06,12.46-23.9,8.1
	C230.55,249.97,226.93,239.27,231.29,230.44z M279.49,294.04c-4.36,8.84-15.06,12.46-23.9,8.1c-8.84-4.36-12.46-15.06-8.1-23.9
	c4.36-8.84,15.06-12.46,23.9-8.1C280.23,274.5,283.85,285.2,279.49,294.04z"/>
</svg>
