<svg width="191" height="191" viewBox="0 0 191 191" fill="none" xmlns="http://www.w3.org/2000/svg">
<g filter="url(#filter0_d_9_756)">
<circle cx="95.5" cy="91.5" r="73.5" fill="white"/>
</g>
<path d="M67.9575 145.092L72.3927 134.86L73.7286 135.439L71.7178 140.078L76.9293 142.337L78.9401 137.698L80.276 138.277L75.8407 148.509L74.5048 147.93L76.452 143.438L71.2405 141.179L69.2934 145.671L67.9575 145.092Z" fill="#274760"/>
<path d="M62.2518 140.224C62.4795 140.382 62.6174 140.595 62.6655 140.862C62.7135 141.13 62.6584 141.377 62.5001 141.605C62.3418 141.833 62.129 141.97 61.8618 142.018C61.5945 142.067 61.3471 142.011 61.1193 141.853C60.9004 141.701 60.7713 141.494 60.732 141.233C60.6839 140.966 60.739 140.718 60.8973 140.491C61.0556 140.263 61.2684 140.125 61.5356 140.077C61.7941 140.023 62.0328 140.072 62.2518 140.224ZM62.4866 138.653L67.4913 131.454L68.6868 132.285L63.6821 139.484L62.4866 138.653Z" fill="#274760"/>
<path d="M54.553 131.945C54.0244 131.402 53.6813 130.813 53.5235 130.178C53.3583 129.534 53.3585 128.939 53.5239 128.39L52.3781 129.507L51.3507 128.452L57.7676 122.199C58.3405 121.641 58.9676 121.268 59.6489 121.081C60.3379 120.886 61.0317 120.895 61.7305 121.107C62.4218 121.312 63.0615 121.717 63.6496 122.32C64.4537 123.145 64.9289 124.023 65.0753 124.952C65.2217 125.882 65.0072 126.724 64.4317 127.478L63.4267 126.447C63.697 125.96 63.7718 125.426 63.651 124.843C63.538 124.254 63.2358 123.707 62.7444 123.202C62.1861 122.629 61.5524 122.338 60.8435 122.329C60.1271 122.312 59.4443 122.62 58.7949 123.253L57.4772 124.537C58.0449 124.386 58.6482 124.394 59.2872 124.561C59.9262 124.727 60.51 125.082 61.0386 125.624C61.5821 126.182 61.9396 126.824 62.1113 127.55C62.2755 128.269 62.2359 129 61.9925 129.744C61.749 130.487 61.3103 131.168 60.6762 131.786C60.0346 132.412 59.3465 132.829 58.6121 133.038C57.8701 133.255 57.1458 133.268 56.4392 133.078C55.7252 132.88 55.0964 132.502 54.553 131.945ZM55.5063 126.458C55.0327 126.92 54.7132 127.417 54.5479 127.951C54.3826 128.484 54.3684 129.004 54.5052 129.512C54.6269 130.018 54.8775 130.467 55.2572 130.856C55.6369 131.246 56.0747 131.512 56.5707 131.654C57.0667 131.796 57.5835 131.792 58.121 131.64C58.6585 131.489 59.1641 131.182 59.6377 130.72C60.119 130.251 60.4461 129.747 60.619 129.206C60.7843 128.672 60.8061 128.152 60.6844 127.645C60.5551 127.146 60.3006 126.701 59.9209 126.311C59.5412 125.922 59.1034 125.656 58.6074 125.514C58.0963 125.371 57.572 125.376 57.0345 125.527C56.4893 125.686 55.9799 125.997 55.5063 126.458Z" fill="#274760"/>
<path d="M45.6364 119.964C45.3031 119.393 45.1264 118.804 45.1064 118.198C45.0771 117.598 45.2313 117.026 45.5691 116.483C45.9014 115.931 46.4177 115.451 47.1178 115.042L51.5814 112.438L52.3072 113.681L48.0233 116.181C47.2678 116.622 46.8023 117.147 46.6265 117.756C46.4416 118.37 46.54 119.004 46.9217 119.658C47.3088 120.322 47.8252 120.73 48.471 120.885C49.1113 121.03 49.8277 120.871 50.62 120.409L54.8071 117.965L55.541 119.223L45.3149 125.19L44.581 123.933L48.3122 121.755C47.7801 121.732 47.2817 121.566 46.8172 121.257C46.3472 120.938 45.9536 120.507 45.6364 119.964Z" fill="#274760"/>
<path d="M49.0306 92.1639L47.0791 94.6305C47.2905 95.1535 47.4289 95.6958 47.4943 96.2573C47.6142 97.285 47.4851 98.2505 47.1072 99.1537C46.7186 100.058 46.1243 100.809 45.3242 101.407C44.5122 101.996 43.5659 102.353 42.4852 102.479C41.4045 102.605 40.4067 102.475 39.4917 102.087C38.5648 101.691 37.8136 101.096 37.238 100.304C36.6518 99.5136 36.2988 98.6044 36.179 97.5767C36.0579 96.5384 36.1917 95.567 36.5802 94.6626C36.9582 93.7594 37.5478 93.0141 38.3492 92.4267C39.1505 91.8392 40.0969 91.4819 41.1881 91.3547C42.2476 91.2311 43.2283 91.3531 44.1303 91.7204C45.0322 92.0878 45.7744 92.6509 46.3569 93.4099L48.812 90.2886L49.0306 92.1639ZM42.3129 101.001C43.1923 100.899 43.9453 100.634 44.572 100.206C45.1975 99.7683 45.6545 99.221 45.9431 98.5645C46.2304 97.8974 46.329 97.1772 46.2388 96.4037C46.1487 95.6303 45.8876 94.9573 45.4558 94.3848C45.0227 93.8017 44.452 93.3743 43.7437 93.1025C43.0343 92.8201 42.2398 92.7301 41.3605 92.8327C40.4705 92.9364 39.7181 93.2067 39.1032 93.6435C38.4765 94.071 38.0188 94.613 37.7302 95.2695C37.4417 95.926 37.3431 96.6462 37.4345 97.4303C37.5259 98.2143 37.7875 98.8926 38.2194 99.4651C38.6513 100.038 39.222 100.465 39.9314 100.747C40.6291 101.02 41.4229 101.105 42.3129 101.001Z" fill="#274760"/>
<path d="M39.6361 78.7417L48.3141 79.9951L48.1059 81.4362L46.8232 81.2509C47.227 81.5894 47.5197 82.0251 47.7014 82.5579C47.8741 83.0786 47.9177 83.6345 47.8323 84.2257C47.7347 84.9014 47.5098 85.4886 47.1576 85.9873C46.7947 86.4846 46.3107 86.8512 45.7054 87.087C45.1017 87.3124 44.3986 87.3671 43.5963 87.2512L38.513 86.517L38.7189 85.0918L43.6121 85.7986C44.4672 85.9221 45.1583 85.801 45.6854 85.4352C46.2018 85.0679 46.5142 84.5095 46.6225 83.76C46.7338 82.9893 46.5839 82.348 46.1729 81.8359C45.7619 81.3239 45.1024 81.0023 44.1945 80.8712L39.428 80.1827L39.6361 78.7417Z" fill="#274760"/>
<path d="M45.2971 74.7083C44.4676 74.3696 43.8103 73.9053 43.3253 73.3155C42.8304 72.7217 42.5291 72.0629 42.4214 71.3391C42.3178 70.6055 42.4131 69.8782 42.7075 69.1573C42.9979 68.4463 43.403 67.8917 43.9228 67.4933C44.4427 67.0949 44.9871 66.8621 45.5561 66.7949L44.0748 66.19L44.6313 64.8273L52.7486 68.1421L52.1921 69.5049L50.6812 68.8879C51.0463 69.3481 51.278 69.9093 51.3762 70.5716C51.4686 71.22 51.3717 71.8947 51.0853 72.5959C50.791 73.3167 50.3471 73.8959 49.7536 74.3333C49.1602 74.7708 48.474 75.0263 47.695 75.1C46.916 75.1736 46.1167 75.043 45.2971 74.7083ZM48.1186 67.8414C47.5064 67.5914 46.9227 67.497 46.3677 67.5584C45.8126 67.6198 45.3299 67.8144 44.9194 68.1422C44.5032 68.4562 44.1922 68.865 43.9866 69.3686C43.7809 69.8722 43.7119 70.3798 43.7795 70.8913C43.8472 71.4028 44.0577 71.8748 44.4111 72.3072C44.7646 72.7396 45.2474 73.0808 45.8597 73.3308C46.4818 73.5848 47.0753 73.6832 47.6403 73.6259C48.1953 73.5645 48.681 73.3768 49.0972 73.0629C49.5036 72.7449 49.8096 72.3341 50.0153 71.8305C50.2209 71.3269 50.29 70.8193 50.2223 70.3078C50.1489 69.7823 49.9354 69.3034 49.582 68.871C49.2187 68.4346 48.7309 68.0914 48.1186 67.8414Z" fill="#274760"/>
<path d="M45.8586 57.1623L55.7719 63.6363L54.9757 64.8553L45.0624 58.3814L45.8586 57.1623Z" fill="#274760"/>
<path d="M51.8224 52.158C51.6403 52.3673 51.4139 52.4813 51.143 52.5002C50.8721 52.519 50.6321 52.4375 50.4228 52.2554C50.2136 52.0734 50.0995 51.847 50.0807 51.5761C50.0618 51.3052 50.1434 51.0652 50.3254 50.8559C50.5005 50.6547 50.7199 50.5487 50.9838 50.5379C51.2546 50.5191 51.4947 50.6007 51.7039 50.7827C51.9132 50.9647 52.0272 51.1911 52.0461 51.462C52.0719 51.7248 51.9974 51.9568 51.8224 52.158ZM53.3588 52.5615L59.9742 58.316L59.0186 59.4145L52.4032 53.66L53.3588 52.5615Z" fill="#274760"/>
<path d="M60.1786 47.6867L63.5167 51.632C63.7923 51.9577 64.0579 52.1312 64.3134 52.1525C64.5621 52.1657 64.8574 52.0276 65.1994 51.7382L66.0178 51.0458L66.8136 51.9863L65.812 52.8338C65.1931 53.3574 64.6084 53.6076 64.0578 53.5844C63.5072 53.5612 62.9564 53.2239 62.4052 52.5725L59.0671 48.6272L58.1998 49.3609L57.4247 48.4448L58.292 47.7111L56.8658 46.0255L57.9773 45.085L59.4035 46.7706L61.1502 45.2928L61.9253 46.2088L60.1786 47.6867Z" fill="#274760"/>
<path d="M72.578 38.3297L74.1793 52.1724L72.8621 52.8984L72.3364 48.365L65.0534 42.4773L66.4687 41.6972L72.3081 46.5902L71.2609 39.0557L72.578 38.3297Z" fill="#274760"/>
<path d="M117.317 37.9573C117.051 38.8466 116.523 39.4961 115.733 39.9059C114.956 40.3085 113.944 40.3237 112.697 39.9515L110.643 39.3383L109.311 43.7999L107.916 43.3834L111.106 32.6973L114.555 33.7269C115.761 34.0868 116.589 34.6512 117.039 35.4199C117.499 36.1916 117.591 37.0374 117.317 37.9573ZM113.041 38.8017C113.817 39.0335 114.44 39.0357 114.909 38.8082C115.377 38.5807 115.705 38.1553 115.891 37.5318C116.284 36.2133 115.725 35.3282 114.212 34.8767L112.158 34.2636L110.986 38.1885L113.041 38.8017Z" fill="#274760"/>
<path d="M123.359 41.5383C123.821 41.2158 124.324 41.0422 124.868 41.0175C125.422 40.9979 126.001 41.1483 126.604 41.4687L125.898 42.7967L125.559 42.6165C124.118 41.8506 122.982 42.2494 122.151 43.813L119.913 48.0233L118.627 47.34L122.742 39.5976L124.028 40.2809L123.359 41.5383Z" fill="#274760"/>
<path d="M128.473 54.0435C127.842 53.5177 127.387 52.8964 127.11 52.1794C126.841 51.4693 126.777 50.7291 126.919 49.9588C127.076 49.1871 127.445 48.453 128.025 47.7564C128.599 47.068 129.251 46.5844 129.983 46.3057C130.73 46.0256 131.478 45.9613 132.226 46.1128C132.982 46.2561 133.679 46.594 134.318 47.1266C134.957 47.6591 135.416 48.2839 135.693 49.0008C135.977 49.7096 136.048 50.4491 135.906 51.2194C135.773 51.9965 135.416 52.7334 134.835 53.43C134.255 54.1266 133.587 54.6115 132.832 54.8848C132.092 55.1567 131.34 55.2176 130.577 55.0674C129.813 54.9173 129.112 54.576 128.473 54.0435ZM129.292 53.06C129.693 53.3946 130.149 53.6144 130.658 53.7195C131.168 53.8245 131.686 53.7773 132.213 53.5779C132.749 53.3852 133.242 53.0185 133.692 52.4776C134.143 51.9367 134.419 51.389 134.52 50.8345C134.62 50.28 134.574 49.7692 134.38 49.3022C134.193 48.8269 133.898 48.422 133.497 48.0875C133.087 47.7461 132.632 47.5263 132.13 47.428C131.644 47.3284 131.142 47.3817 130.623 47.588C130.104 47.7943 129.619 48.1679 129.168 48.7088C128.711 49.2579 128.423 49.8029 128.306 50.3437C128.197 50.8914 128.232 51.3994 128.411 51.8679C128.597 52.3281 128.89 52.7255 129.292 53.06Z" fill="#274760"/>
<path d="M142.621 57.985L141.478 56.5429L135.546 61.2432L134.642 60.102L140.573 55.4017L139.868 54.5114L140.808 53.7661L141.514 54.6564L142.003 54.2689C142.772 53.6594 143.488 53.412 144.15 53.5267C144.828 53.6431 145.514 54.1402 146.21 55.018L145.257 55.7732C144.86 55.2716 144.478 54.9958 144.111 54.9458C143.76 54.8976 143.359 55.0523 142.907 55.41L142.418 55.7976L143.561 57.2397L142.621 57.985Z" fill="#274760"/>
<path d="M147.059 71.5124C146.812 71.6384 146.543 71.7574 146.253 71.8695L143.069 65.6266C142.324 66.0667 141.854 66.6358 141.659 67.3338C141.478 68.0365 141.563 68.73 141.912 69.4141C142.198 69.9747 142.563 70.3749 143.009 70.6146C143.469 70.859 143.956 70.9457 144.471 70.8748L145.183 72.2716C144.326 72.4454 143.5 72.34 142.705 71.9552C141.919 71.5655 141.289 70.9051 140.814 69.9739C140.436 69.2327 140.263 68.4828 140.295 67.724C140.332 66.9748 140.57 66.2788 141.008 65.636C141.456 64.9884 142.084 64.4586 142.892 64.0467C143.7 63.6347 144.49 63.4352 145.263 63.4481C146.036 63.4609 146.731 63.6748 147.35 64.0896C147.983 64.5091 148.494 65.099 148.881 65.8591C149.259 66.6003 149.432 67.3383 149.4 68.0732C149.368 68.8081 149.144 69.473 148.729 70.0679C148.328 70.6674 147.772 71.1489 147.059 71.5124ZM146.646 70.0345C147.141 69.7825 147.508 69.4575 147.748 69.0596C147.997 68.6569 148.116 68.2195 148.102 67.7473C148.103 67.2798 147.987 66.818 147.755 66.3619C147.42 65.7063 146.925 65.2523 146.27 64.9999C145.619 64.7571 144.906 64.7914 144.131 65.1029L146.646 70.0345Z" fill="#274760"/>
<path d="M144.394 79.9508C144.227 79.2997 144.187 78.6881 144.272 78.1159C144.367 77.5411 144.572 77.0536 144.889 76.6535C145.215 76.2508 145.633 75.9678 146.141 75.8047L146.514 77.2619C146.101 77.4115 145.805 77.6964 145.626 78.1165C145.45 78.5468 145.436 79.0514 145.584 79.6301C145.721 80.1675 145.948 80.5608 146.265 80.8101C146.582 81.0593 146.921 81.1377 147.283 81.0453C147.655 80.9501 147.887 80.7148 147.978 80.3392C148.079 79.9609 148.129 79.4031 148.128 78.6658C148.132 77.9931 148.165 77.4342 148.228 76.9889C148.303 76.5512 148.469 76.1455 148.726 75.7716C148.995 75.4053 149.404 75.1522 149.952 75.0122C150.386 74.9012 150.817 74.9287 151.244 75.0946C151.672 75.2604 152.05 75.5546 152.378 75.9772C152.717 76.3971 152.964 76.9119 153.12 77.5216C153.361 78.462 153.317 79.2823 152.99 79.9826C152.662 80.6829 152.09 81.1593 151.274 81.4121L150.914 80.0014C151.35 79.8568 151.66 79.5848 151.845 79.1854C152.031 78.7964 152.055 78.328 151.915 77.7803C151.785 77.2739 151.574 76.8986 151.28 76.6544C150.986 76.4102 150.664 76.333 150.312 76.4228C150.033 76.4941 149.823 76.6414 149.682 76.8647C149.554 77.0956 149.468 77.36 149.423 77.6577C149.391 77.9632 149.37 78.3759 149.359 78.896C149.35 79.548 149.311 80.0863 149.244 80.5109C149.187 80.9329 149.032 81.3192 148.78 81.6698C148.531 82.0308 148.15 82.2824 147.636 82.4249C147.171 82.5438 146.719 82.5216 146.281 82.3584C145.843 82.1951 145.455 81.9036 145.116 81.4837C144.791 81.0715 144.55 80.5605 144.394 79.9508Z" fill="#274760"/>
<path d="M145.757 90.3642C145.733 89.6927 145.823 89.0863 146.027 88.5451C146.242 88.0036 146.546 87.5708 146.94 87.2469C147.344 86.9225 147.812 86.7346 148.344 86.6831L148.399 88.1861C147.964 88.2447 147.614 88.4603 147.35 88.8329C147.087 89.2161 146.966 89.7062 146.988 90.3032C147.008 90.8575 147.147 91.29 147.404 91.6008C147.66 91.9116 147.975 92.0602 148.348 92.0466C148.732 92.0325 149.008 91.8516 149.177 91.5039C149.357 91.1558 149.524 90.6213 149.679 89.9005C149.826 89.244 149.977 88.7048 150.132 88.2828C150.298 87.8711 150.547 87.5098 150.877 87.1988C151.218 86.8981 151.671 86.7375 152.236 86.7168C152.684 86.7004 153.099 86.8186 153.482 87.0714C153.865 87.3243 154.172 87.692 154.403 88.1745C154.645 88.6566 154.777 89.2122 154.8 89.8411C154.836 90.8111 154.619 91.6036 154.151 92.2184C153.682 92.8333 153.022 93.1777 152.171 93.2515L152.118 91.7965C152.575 91.7478 152.936 91.5477 153.201 91.1965C153.466 90.8559 153.588 90.4031 153.567 89.8382C153.548 89.3159 153.421 88.9042 153.186 88.6033C152.951 88.3024 152.652 88.1585 152.289 88.1718C152.002 88.1823 151.765 88.2817 151.58 88.47C151.406 88.6685 151.265 88.9084 151.158 89.1899C151.062 89.4816 150.954 89.8805 150.833 90.3865C150.686 91.0217 150.534 91.5396 150.378 91.9402C150.233 92.3405 150 92.6853 149.679 92.9745C149.359 93.2744 148.933 93.4394 148.401 93.4696C147.921 93.4872 147.484 93.3697 147.091 93.1173C146.697 92.8648 146.38 92.4975 146.138 92.0154C145.907 91.5435 145.78 90.9931 145.757 90.3642Z" fill="#274760"/>
<path d="M155.48 100.108C155.518 99.833 155.646 99.6139 155.863 99.4503C156.079 99.2868 156.325 99.2242 156.6 99.2626C156.875 99.301 157.094 99.4286 157.257 99.6454C157.421 99.8621 157.483 100.108 157.445 100.382C157.408 100.647 157.282 100.855 157.067 101.008C156.85 101.172 156.604 101.234 156.329 101.196C156.055 101.157 155.836 101.03 155.672 100.813C155.507 100.607 155.443 100.372 155.48 100.108ZM153.972 100.608L145.289 99.393L145.49 97.9511L154.174 99.1656L153.972 100.608Z" fill="#274760"/>
<path d="M142.934 107.98C143.2 107.203 143.619 106.557 144.189 106.042C144.757 105.537 145.426 105.214 146.196 105.071C146.973 104.943 147.79 105.025 148.648 105.319C149.496 105.609 150.18 106.046 150.702 106.631C151.23 107.229 151.557 107.904 151.682 108.657C151.818 109.414 151.751 110.186 151.481 110.973C151.212 111.76 150.792 112.411 150.221 112.926C149.66 113.445 148.995 113.775 148.225 113.917C147.451 114.069 146.635 113.999 145.777 113.705C144.92 113.412 144.228 112.961 143.704 112.353C143.185 111.758 142.86 111.078 142.728 110.311C142.596 109.544 142.665 108.767 142.934 107.98ZM144.145 108.394C143.976 108.889 143.933 109.393 144.017 109.906C144.1 110.42 144.329 110.887 144.704 111.308C145.075 111.74 145.593 112.069 146.259 112.297C146.925 112.525 147.535 112.588 148.089 112.484C148.643 112.381 149.104 112.155 149.471 111.807C149.848 111.463 150.121 111.043 150.291 110.549C150.463 110.044 150.506 109.54 150.419 109.037C150.339 108.547 150.11 108.097 149.732 107.685C149.354 107.274 148.832 106.955 148.166 106.727C147.49 106.495 146.878 106.421 146.331 106.504C145.781 106.598 145.318 106.812 144.945 107.146C144.581 107.484 144.314 107.9 144.145 108.394Z" fill="#274760"/>
<path d="M144.949 124.014C144.37 124.91 143.628 125.459 142.722 125.661C141.826 125.868 140.867 125.642 139.846 124.982L135.506 122.175L136.288 120.966L140.453 123.66C141.187 124.135 141.866 124.313 142.489 124.195C143.12 124.082 143.642 123.708 144.053 123.072C144.47 122.427 144.601 121.782 144.447 121.136C144.288 120.499 143.823 119.932 143.052 119.434L138.981 116.801L139.772 115.579L147.135 120.34L146.344 121.562L145.296 120.885C145.516 121.37 145.596 121.885 145.535 122.43C145.469 122.985 145.274 123.512 144.949 124.014Z" fill="#274760"/>
<path d="M136.084 128.172C136.697 128.826 137.1 129.522 137.295 130.261C137.496 131.007 137.495 131.731 137.291 132.434C137.079 133.144 136.689 133.765 136.12 134.297C135.56 134.822 134.96 135.157 134.321 135.302C133.683 135.447 133.091 135.431 132.546 135.255L133.639 136.423L132.565 137.429L126.572 131.028L127.647 130.022L128.762 131.214C128.622 130.643 128.646 130.036 128.833 129.393C129.02 128.766 129.39 128.193 129.943 127.675C130.511 127.143 131.156 126.802 131.878 126.652C132.6 126.503 133.33 126.557 134.069 126.815C134.807 127.073 135.479 127.526 136.084 128.172ZM130.654 133.234C131.106 133.717 131.597 134.046 132.127 134.222C132.657 134.398 133.177 134.423 133.687 134.296C134.196 134.185 134.649 133.943 135.046 133.571C135.443 133.199 135.718 132.767 135.87 132.274C136.022 131.781 136.028 131.264 135.887 130.724C135.746 130.183 135.45 129.672 134.998 129.189C134.539 128.698 134.04 128.361 133.503 128.177C132.973 128.002 132.453 127.969 131.944 128.081C131.442 128.2 130.993 128.446 130.595 128.818C130.198 129.189 129.924 129.622 129.772 130.115C129.619 130.623 129.613 131.147 129.754 131.688C129.902 132.236 130.202 132.751 130.654 133.234Z" fill="#274760"/>
<path d="M128.25 143.882L121.944 133.861L123.177 133.085L129.483 143.106L128.25 143.882Z" fill="#274760"/>
<path d="M114.472 137.364C115.095 137.111 115.695 136.988 116.274 136.994C116.856 137.011 117.367 137.149 117.806 137.408C118.249 137.677 118.586 138.052 118.817 138.534L117.423 139.1C117.219 138.711 116.897 138.457 116.457 138.336C116.006 138.22 115.504 138.274 114.951 138.499C114.437 138.708 114.078 138.987 113.874 139.334C113.67 139.682 113.638 140.029 113.779 140.375C113.924 140.731 114.188 140.928 114.573 140.968C114.961 141.017 115.521 140.991 116.251 140.89C116.918 140.803 117.476 140.76 117.926 140.762C118.37 140.777 118.794 140.886 119.2 141.09C119.599 141.308 119.905 141.678 120.118 142.202C120.287 142.617 120.318 143.048 120.211 143.494C120.105 143.94 119.865 144.355 119.49 144.737C119.12 145.129 118.644 145.444 118.061 145.681C117.161 146.047 116.343 146.115 115.605 145.885C114.866 145.655 114.317 145.153 113.956 144.379L115.305 143.831C115.507 144.243 115.819 144.514 116.239 144.642C116.65 144.775 117.117 144.735 117.641 144.522C118.125 144.325 118.468 144.064 118.671 143.74C118.873 143.416 118.906 143.086 118.769 142.75C118.661 142.484 118.486 142.295 118.246 142.186C118 142.09 117.726 142.04 117.425 142.036C117.118 142.046 116.706 142.081 116.19 142.141C115.542 142.22 115.004 142.255 114.574 142.245C114.148 142.246 113.744 142.145 113.363 141.943C112.972 141.745 112.671 141.401 112.46 140.911C112.279 140.466 112.24 140.016 112.342 139.56C112.445 139.104 112.681 138.679 113.051 138.287C113.416 137.909 113.889 137.601 114.472 137.364Z" fill="#274760"/>
<defs>
<filter id="filter0_d_9_756" x="0" y="0" width="191" height="191" filterUnits="userSpaceOnUse" color-interpolation-filters="sRGB">
<feFlood flood-opacity="0" result="BackgroundImageFix"/>
<feColorMatrix in="SourceAlpha" type="matrix" values="0 0 0 0 0 0 0 0 0 0 0 0 0 0 0 0 0 0 127 0" result="hardAlpha"/>
<feMorphology radius="1" operator="dilate" in="SourceAlpha" result="effect1_dropShadow_9_756"/>
<feOffset dy="4"/>
<feGaussianBlur stdDeviation="10.5"/>
<feComposite in2="hardAlpha" operator="out"/>
<feColorMatrix type="matrix" values="0 0 0 0 0.188235 0 0 0 0 0.482353 0 0 0 0 0.768627 0 0 0 0.1 0"/>
<feBlend mode="normal" in2="BackgroundImageFix" result="effect1_dropShadow_9_756"/>
<feBlend mode="normal" in="SourceGraphic" in2="effect1_dropShadow_9_756" result="shape"/>
</filter>
</defs>
</svg>
