<svg width="27" height="26" viewBox="0 0 27 26" fill="none" xmlns="http://www.w3.org/2000/svg">
  <mask id="mask0_3_48" style="mask-type:luminance" maskUnits="userSpaceOnUse" x="0" y="0" width="27" height="26">
  <path d="M0.748901 0H26.7489V26H0.748901V0Z" fill="white"/>
  </mask>
  <g mask="url(#mask0_3_48)">
  <path d="M20.6969 5.38257C20.6969 8.42944 18.1923 10.1606 13.749 14.0154C9.30561 10.1606 6.80103 8.42944 6.80103 5.38257C6.80103 3.88198 7.77044 1.32007 10.5522 1.32007C12.26 1.32007 13.2066 2.56675 13.749 3.55901C14.2913 2.56675 15.2379 1.32007 16.9456 1.32007C19.7274 1.32007 20.6969 3.88198 20.6969 5.38257Z" stroke="white" stroke-miterlimit="10" stroke-linecap="round" stroke-linejoin="round"/>
  <path d="M21.163 17.6935L23.7635 15.0925C24.0392 14.8168 24.2098 14.4359 24.2098 14.0154C24.2098 13.3522 23.7863 12.788 23.1942 12.5788" stroke="white" stroke-miterlimit="10" stroke-linecap="round" stroke-linejoin="round"/>
  <path d="M4.30359 12.5789C4.46253 12.5225 4.63316 12.4921 4.8114 12.4921C5.23187 12.4921 5.61273 12.6627 5.88847 12.9384L7.02902 14.0785C7.73843 14.7879 9.44011 15.4501 10.438 15.5501L10.4755 15.5542C11.7573 15.6827 12.7333 16.7618 12.7333 18.0501V24.6796H7.35046V21.6327L4.62503 20.2702C2.56078 19.2378 1.25671 17.1279 1.25671 14.8199V7.92175C1.25671 7.08031 1.93871 6.39831 2.78015 6.39831C3.6216 6.39831 4.30359 7.08031 4.30359 7.92175V12.5789Z" stroke="white" stroke-miterlimit="10" stroke-linecap="round" stroke-linejoin="round"/>
  <path d="M6.33484 17.6935L3.73433 15.0925C3.45859 14.8168 3.28796 14.4359 3.28796 14.0154C3.28796 13.3522 3.71148 12.788 4.30359 12.5788" stroke="white" stroke-miterlimit="10" stroke-linecap="round" stroke-linejoin="round"/>
  <path d="M24.5653 19.4999C24.5653 19.7803 24.3379 20.0077 24.0575 20.0077C23.7771 20.0077 23.5497 19.7803 23.5497 19.4999C23.5497 19.2195 23.7771 18.9921 24.0575 18.9921C24.3379 18.9921 24.5653 19.2195 24.5653 19.4999Z" fill="white"/>
  <path d="M25.5014 17.7298C25.9781 16.8528 26.2411 15.8563 26.2411 14.8198V7.92163C26.2411 7.08018 25.5591 6.39819 24.7177 6.39819C23.8762 6.39819 23.1942 7.08018 23.1942 7.92163V12.5788C23.0353 12.5224 22.8646 12.4919 22.6864 12.4919C22.2659 12.4919 21.8851 12.6626 21.6093 12.9384L20.4688 14.0784C19.7594 14.7878 18.0577 15.45 17.0599 15.55L17.0223 15.5541C15.7405 15.6826 14.7645 16.7617 14.7645 18.05V24.6794H20.1473V21.6326L22.0902 20.6613" stroke="white" stroke-miterlimit="10" stroke-linecap="round" stroke-linejoin="round"/>
  </g>
</svg> 