<svg width="1673" height="449" viewBox="0 0 1673 449" fill="none" xmlns="http://www.w3.org/2000/svg">
<rect width="1673" height="449" fill="url(#paint0_linear_26_76)"/>
<mask id="mask0_26_76" style="mask-type:alpha" maskUnits="userSpaceOnUse" x="0" y="0" width="1673" height="449">
<rect width="1673" height="449" fill="url(#paint1_linear_26_76)"/>
</mask>
<g mask="url(#mask0_26_76)">
<g opacity="0.1" filter="url(#filter0_d_26_76)">
<path d="M1327.06 43.7711C1176.88 28.3074 1154.33 155.781 1161.97 222.051C1181.38 327.879 1293.95 391.758 1338.62 414.35C1374.35 432.423 1452.08 506.339 1486.48 541.038C1622.56 624.347 1669.07 467.998 1678.42 440.672C1687.78 413.345 1694.69 315.668 1750.03 241.543C1794.31 182.244 1816.19 117.983 1821.59 93.2645C1833 -17.7291 1777.03 -37.1141 1752.61 -45.1424C1728.2 -53.1709 1673.6 -49.5476 1580.96 25.7409C1506.84 85.9716 1380.91 63.2571 1327.06 43.7711Z" fill="white"/>
</g>
<g opacity="0.17" filter="url(#filter1_d_26_76)">
<path d="M-26.9384 -37.2514C-177.12 -52.7151 -199.67 74.7587 -192.029 141.028C-172.623 246.857 -60.0537 310.736 -15.3835 333.327C20.3526 351.401 98.081 425.317 132.478 460.016C268.558 543.324 315.067 386.976 324.422 359.649C333.776 332.322 340.685 234.645 396.034 160.521C440.313 101.221 462.187 36.9602 467.589 12.242C478.998 -98.7515 423.026 -118.137 398.614 -126.165C374.202 -134.193 319.598 -130.57 226.956 -55.2816C152.842 4.94914 26.9075 -17.7654 -26.9384 -37.2514Z" fill="white"/>
</g>
</g>
<defs>
<filter id="filter0_d_26_76" x="1121.67" y="-83.1104" width="740.43" height="691.346" filterUnits="userSpaceOnUse" color-interpolation-filters="sRGB">
<feFlood flood-opacity="0" result="BackgroundImageFix"/>
<feColorMatrix in="SourceAlpha" type="matrix" values="0 0 0 0 0 0 0 0 0 0 0 0 0 0 0 0 0 0 127 0" result="hardAlpha"/>
<feOffset dy="4"/>
<feGaussianBlur stdDeviation="19.5"/>
<feComposite in2="hardAlpha" operator="out"/>
<feColorMatrix type="matrix" values="0 0 0 0 0.52549 0 0 0 0 0.733333 0 0 0 0 0.945098 0 0 0 1 0"/>
<feBlend mode="normal" in2="BackgroundImageFix" result="effect1_dropShadow_26_76"/>
<feBlend mode="normal" in="SourceGraphic" in2="effect1_dropShadow_26_76" result="shape"/>
</filter>
<filter id="filter1_d_26_76" x="-232.326" y="-164.133" width="740.43" height="691.346" filterUnits="userSpaceOnUse" color-interpolation-filters="sRGB">
<feFlood flood-opacity="0" result="BackgroundImageFix"/>
<feColorMatrix in="SourceAlpha" type="matrix" values="0 0 0 0 0 0 0 0 0 0 0 0 0 0 0 0 0 0 127 0" result="hardAlpha"/>
<feOffset dy="4"/>
<feGaussianBlur stdDeviation="19.5"/>
<feComposite in2="hardAlpha" operator="out"/>
<feColorMatrix type="matrix" values="0 0 0 0 0.52549 0 0 0 0 0.733333 0 0 0 0 0.945098 0 0 0 1 0"/>
<feBlend mode="normal" in2="BackgroundImageFix" result="effect1_dropShadow_26_76"/>
<feBlend mode="normal" in="SourceGraphic" in2="effect1_dropShadow_26_76" result="shape"/>
</filter>
<linearGradient id="paint0_linear_26_76" x1="0" y1="0" x2="1669.38" y2="297.365" gradientUnits="userSpaceOnUse">
<stop stop-color="#12372A"/>
<stop offset="1" stop-color="#03DFB6"/>
</linearGradient>
<linearGradient id="paint1_linear_26_76" x1="0" y1="0" x2="1669.38" y2="297.365" gradientUnits="userSpaceOnUse">
<stop stop-color="#12372A"/>
<stop offset="1" stop-color="#03DFB6"/>
</linearGradient>
</defs>
</svg>
