<svg width="26" height="26" viewBox="0 0 26 26" fill="none" xmlns="http://www.w3.org/2000/svg">
  <path d="M14.6251 26H11.3751C10.6167 26 9.75008 25.35 9.75008 24.05V21.775C9.75008 20.6916 9.20841 19.7166 8.34175 18.9583C6.39175 17.4416 5.41675 15.275 5.41675 12.8916C5.52508 8.77496 8.88341 5.52496 12.8917 5.41663C14.9501 5.41663 16.9001 6.17496 18.3084 7.58329C19.7167 8.99163 20.5834 10.9416 20.5834 13C20.5834 15.275 19.6084 17.4416 17.7667 18.85C16.7917 19.6083 16.2501 20.8 16.2501 21.8833V24.375C16.2501 25.2416 15.4917 26 14.6251 26ZM13.0001 6.49996C9.53341 6.49996 6.60841 9.42496 6.50008 12.8916C6.50008 14.95 7.36675 16.9 8.99175 18.0916C10.1834 19.0666 10.8334 20.3666 10.8334 21.775V24.05C10.8334 24.2666 10.8334 24.9166 11.3751 24.9166H14.6251C14.9501 24.9166 15.1667 24.7 15.1667 24.375V21.8833C15.1667 20.475 15.9251 18.9583 17.1167 17.9833C18.6334 16.7916 19.5001 14.95 19.5001 13C19.5001 11.2666 18.8501 9.64163 17.5501 8.34163C16.3584 7.14996 14.7334 6.49996 13.0001 6.49996Z" fill="white"/>
  <path d="M15.7083 22.75H10.2917C9.96667 22.75 9.75 22.5333 9.75 22.2083C9.75 21.8833 9.96667 21.6666 10.2917 21.6666H15.7083C16.0333 21.6666 16.25 21.8833 16.25 22.2083C16.25 22.5333 16.0333 22.75 15.7083 22.75Z" fill="white"/>
  <path d="M12.9999 3.25C12.6749 3.25 12.4583 3.03333 12.4583 2.70833V0.541667C12.4583 0.216667 12.6749 0 12.9999 0C13.3249 0 13.5416 0.216667 13.5416 0.541667V2.70833C13.5416 3.03333 13.3249 3.25 12.9999 3.25Z" fill="white"/>
  <path d="M20.2584 6.28338C20.1501 6.28338 19.9334 6.28338 19.8251 6.17505C19.6084 5.95838 19.6084 5.63338 19.8251 5.41672L21.3418 3.90005C21.5584 3.68338 21.8834 3.68338 22.1001 3.90005C22.3168 4.11672 22.3168 4.44172 22.1001 4.65838L20.5834 6.17505C20.5834 6.17505 20.3668 6.28338 20.2584 6.28338Z" fill="white"/>
  <path d="M25.4583 13.5417H23.2917C22.9667 13.5417 22.75 13.325 22.75 13C22.75 12.675 22.9667 12.4584 23.2917 12.4584H25.4583C25.7833 12.4584 26 12.675 26 13C26 13.325 25.7833 13.5417 25.4583 13.5417Z" fill="white"/>
  <path d="M21.7751 22.3167C21.6668 22.3167 21.4501 22.3167 21.3418 22.2084L19.8251 20.6917C19.6084 20.475 19.6084 20.15 19.8251 19.9334C20.0418 19.7167 20.3668 19.7167 20.5834 19.9334L22.1001 21.45C22.3168 21.6667 22.3168 21.9917 22.1001 22.2084C22.1001 22.3167 21.9918 22.3167 21.7751 22.3167Z" fill="white"/>
  <path d="M4.22523 22.3167C4.11689 22.3167 3.90023 22.3167 3.79189 22.2084C3.57523 21.9917 3.57523 21.6667 3.79189 21.45L5.30856 19.9334C5.52523 19.7167 5.85023 19.7167 6.06689 19.9334C6.28356 20.15 6.28356 20.475 6.06689 20.6917L4.55023 22.2084C4.44189 22.3167 4.33356 22.3167 4.22523 22.3167Z" fill="white"/>
  <path d="M2.70833 13.5417H0.541667C0.216667 13.5417 0 13.325 0 13C0 12.675 0.216667 12.4584 0.541667 12.4584H2.70833C3.03333 12.4584 3.25 12.675 3.25 13C3.25 13.325 3.03333 13.5417 2.70833 13.5417Z" fill="white"/>
  <path d="M5.74189 6.28332C5.63356 6.28332 5.41689 6.28332 5.30856 6.17498L3.79189 4.54998C3.57523 4.33332 3.57523 4.00832 3.79189 3.79165C4.00856 3.57498 4.33356 3.57498 4.55023 3.79165L6.06689 5.30832C6.28356 5.52498 6.28356 5.84998 6.06689 6.06665C5.95856 6.17498 5.85023 6.28332 5.74189 6.28332Z" fill="white"/>
  <path d="M17.3333 13.5417C17.0083 13.5417 16.7916 13.325 16.7916 13C16.7916 10.9417 15.0583 9.20833 12.9999 9.20833C12.6749 9.20833 12.4583 8.99167 12.4583 8.66667C12.4583 8.34167 12.6749 8.125 12.9999 8.125C15.7083 8.125 17.8749 10.2917 17.8749 13C17.8749 13.325 17.6583 13.5417 17.3333 13.5417Z" fill="white"/>
</svg> 