<svg width="26" height="24" viewBox="0 0 26 24" fill="none" xmlns="http://www.w3.org/2000/svg">
  <path d="M7.05247 9.80254C7.05246 9.86094 7.06445 9.91878 7.08778 9.97274C7.11111 10.0267 7.14531 10.0757 7.18842 10.117C7.23154 10.1583 7.28273 10.1911 7.33906 10.2134C7.3954 10.2358 7.45578 10.2473 7.51676 10.2472H10.234C10.295 10.2473 10.3554 10.2358 10.4117 10.2134C10.468 10.1911 10.5192 10.1583 10.5623 10.117C10.6055 10.0757 10.6397 10.0267 10.663 9.97274C10.6863 9.91878 10.6983 9.86094 10.6983 9.80254V7.60509C11.3062 7.5007 11.8563 7.19492 12.2526 6.74125C12.6489 6.28758 12.866 5.71491 12.866 5.1234C12.866 4.5319 12.6489 3.95922 12.2526 3.50555C11.8563 3.05189 11.3062 2.74611 10.6983 2.64171V0.444702C10.6983 0.386298 10.6863 0.328464 10.663 0.274503C10.6397 0.220542 10.6055 0.171512 10.5623 0.130215C10.5192 0.0889175 10.468 0.0561616 10.4117 0.0338188C10.3554 0.0114761 10.295 -1.57591e-05 10.234 1.62195e-08H2.04327C1.50157 0.000521449 0.982205 0.206849 0.599144 0.573711C0.216082 0.940572 0.000607192 1.438 1.69338e-08 1.95685V9.80254C-1.64531e-05 9.86094 0.0119815 9.91878 0.0353082 9.97274C0.0586349 10.0267 0.0928333 10.0757 0.135949 10.117C0.179066 10.1583 0.230255 10.1911 0.286592 10.2134C0.342929 10.2358 0.40331 10.2473 0.464286 10.2472H3.18154C3.24251 10.2473 3.30289 10.2358 3.35923 10.2134C3.41557 10.1911 3.46676 10.1583 3.50987 10.117C3.55299 10.0757 3.58719 10.0267 3.61051 9.97274C3.63384 9.91878 3.64584 9.86094 3.64582 9.80254C3.65073 9.37294 3.83235 8.96253 4.15126 8.66041C4.47016 8.35829 4.9006 8.18883 5.34915 8.18883C5.79769 8.18883 6.22814 8.35829 6.54704 8.66041C6.86594 8.96253 7.04756 9.37294 7.05247 9.80254ZM2.75829 9.35784H0.928571V1.95685C0.928973 1.67383 1.04655 1.40251 1.25552 1.2024C1.46448 1.00229 1.74778 0.889728 2.04327 0.889403H9.76972V3.04733C9.76971 3.10573 9.7817 3.16357 9.80503 3.21753C9.82836 3.27149 9.86256 3.32052 9.90567 3.36182C9.94879 3.40312 9.99998 3.43587 10.0563 3.45821C10.1127 3.48056 10.173 3.49205 10.234 3.49203C10.6824 3.49685 11.1108 3.67085 11.4261 3.97627C11.7414 4.28169 11.9182 4.6939 11.9182 5.12343C11.9182 5.55296 11.7414 5.96515 11.426 6.27057C11.1107 6.57598 10.6824 6.74997 10.234 6.75477C10.173 6.75476 10.1126 6.76626 10.0563 6.7886C9.99995 6.81095 9.94876 6.8437 9.90565 6.885C9.86254 6.9263 9.82835 6.97533 9.80502 7.02928C9.7817 7.08324 9.7697 7.14107 9.76972 7.19947V9.35784H7.94001C7.82668 8.77904 7.50569 8.2564 7.03257 7.88032C6.55945 7.50425 5.96397 7.2984 5.34915 7.2984C4.73433 7.2984 4.13884 7.50425 3.66573 7.88032C3.19261 8.2564 2.87162 8.77904 2.75829 9.35784Z" fill="white"/>
  <path d="M23.9567 4.67896H15.766C15.705 4.67894 15.6446 4.69043 15.5883 4.71277C15.5319 4.73512 15.4808 4.76787 15.4376 4.80917C15.3945 4.85047 15.3603 4.8995 15.337 4.95346C15.3137 5.00742 15.3017 5.06525 15.3017 5.12366V7.72629C15.3017 7.78469 15.3137 7.84253 15.337 7.89649C15.3603 7.95045 15.3945 7.99948 15.4376 8.04078C15.4808 8.08207 15.5319 8.11483 15.5883 8.13717C15.6446 8.15951 15.705 8.17101 15.766 8.17099C16.2144 8.17576 16.6428 8.34973 16.9582 8.65516C17.2735 8.96059 17.4504 9.37282 17.4504 9.80238C17.4504 10.2319 17.2735 10.6442 16.9581 10.9496C16.6428 11.255 16.2144 11.429 15.7659 11.4337C15.705 11.4337 15.6446 11.4452 15.5882 11.4676C15.5319 11.4899 15.4807 11.5227 15.4376 11.564C15.3945 11.6053 15.3603 11.6543 15.337 11.7082C15.3137 11.7622 15.3017 11.82 15.3017 11.8784V13.7528H13.4717C13.3627 13.1707 13.0435 12.6438 12.5699 12.2643C12.0963 11.8849 11.4985 11.6769 10.881 11.6769C10.2635 11.6769 9.66573 11.8849 9.19214 12.2643C8.71854 12.6438 8.3993 13.1707 8.29025 13.7528H5.99602C5.93505 13.7528 5.87467 13.7643 5.81833 13.7866C5.76199 13.8089 5.7108 13.8417 5.66769 13.883C5.62457 13.9243 5.59037 13.9733 5.56705 14.0273C5.54372 14.0812 5.53172 14.1391 5.53174 14.1975V22.0432C5.53234 22.562 5.74782 23.0595 6.13088 23.4263C6.51394 23.7932 7.0333 23.9995 7.575 24H23.9567C24.4984 23.9995 25.0178 23.7932 25.4008 23.4263C25.7839 23.0595 25.9994 22.562 26 22.0432V6.63582C25.9994 6.11696 25.7839 5.61953 25.4008 5.25267C25.0178 4.88581 24.4984 4.67948 23.9567 4.67896ZM18.3978 9.80258C18.397 9.21127 18.1797 8.63896 17.7836 8.18542C17.3875 7.73187 16.8378 7.42585 16.2303 7.3207V5.56836H23.9567C24.2522 5.56869 24.5355 5.68125 24.7445 5.88136C24.9534 6.08147 25.071 6.35279 25.0714 6.63582V13.7528H22.8184C22.7575 13.7528 22.6971 13.7643 22.6408 13.7866C22.5844 13.8089 22.5332 13.8417 22.4901 13.883C22.447 13.9243 22.4128 13.9733 22.3895 14.0273C22.3661 14.0812 22.3541 14.1391 22.3542 14.1975C22.3491 14.627 22.1675 15.0373 21.8486 15.3393C21.5297 15.6414 21.0993 15.8108 20.6508 15.8108C20.2023 15.8108 19.772 15.6414 19.4531 15.3393C19.1342 15.0373 18.9525 14.627 18.9475 14.1974C18.9475 14.139 18.9355 14.0812 18.9122 14.0272C18.8889 13.9733 18.8547 13.9243 18.8115 13.883C18.7684 13.8417 18.7172 13.8089 18.6609 13.7866C18.6046 13.7643 18.5442 13.7528 18.4832 13.7528H16.2303V12.284C16.8377 12.1789 17.3874 11.873 17.7835 11.4195C18.1796 10.966 18.397 10.3938 18.3978 9.80258ZM6.46031 22.0432V14.6422H8.71349C8.77446 14.6422 8.83485 14.6307 8.89118 14.6084C8.94752 14.586 8.99871 14.5533 9.04182 14.512C9.08494 14.4707 9.11914 14.4216 9.14247 14.3677C9.16579 14.3137 9.17779 14.2559 9.17777 14.1975C9.17852 13.7653 9.35829 13.351 9.67763 13.0457C9.99696 12.7403 10.4298 12.5688 10.881 12.5688C11.3322 12.5688 11.765 12.7403 12.0843 13.0457C12.4037 13.351 12.5835 13.7653 12.5842 14.1975C12.5842 14.2559 12.5962 14.3137 12.6195 14.3677C12.6428 14.4216 12.677 14.4707 12.7201 14.512C12.7633 14.5533 12.8145 14.586 12.8708 14.6084C12.9271 14.6307 12.9875 14.6422 13.0485 14.6422H15.3017V16.3949C14.6938 16.4993 14.1436 16.8051 13.7473 17.2588C13.3511 17.7124 13.1339 18.2851 13.1339 18.8766C13.1339 19.4681 13.3511 20.0408 13.7473 20.4945C14.1436 20.9481 14.6938 21.2539 15.3017 21.3583V23.1106H7.575C7.27951 23.1103 6.99622 22.9977 6.78725 22.7976C6.57829 22.5975 6.46071 22.3262 6.46031 22.0432ZM23.9567 23.1106H16.2303V20.9527C16.2303 20.8943 16.2183 20.8365 16.195 20.7825C16.1716 20.7285 16.1374 20.6795 16.0943 20.6382C16.0512 20.5969 16 20.5641 15.9437 20.5418C15.8873 20.5195 15.827 20.508 15.766 20.508C15.3143 20.508 14.881 20.3361 14.5616 20.0302C14.2422 19.7242 14.0628 19.3093 14.0628 18.8766C14.0628 18.444 14.2422 18.029 14.5616 17.7231C14.881 17.4171 15.3143 17.2452 15.766 17.2452C15.827 17.2453 15.8873 17.2338 15.9437 17.2114C16 17.1891 16.0512 17.1563 16.0943 17.115C16.1374 17.0737 16.1716 17.0247 16.195 16.9707C16.2183 16.9168 16.2303 16.859 16.2303 16.8005V14.9258H18.06C18.1689 15.508 18.4882 16.035 18.9618 16.4145C19.4354 16.7941 20.0333 17.0021 20.6508 17.0021C21.2684 17.0021 21.8663 16.7941 22.3399 16.4145C22.8135 16.035 23.1327 15.508 23.2417 14.9258H25.0714V22.0432C25.071 22.3262 24.9534 22.5975 24.7445 22.7976C24.5355 22.9977 24.2522 23.1103 23.9567 23.1106Z" fill="white"/>
</svg> 