<svg width="26" height="26" viewBox="0 0 26 26" fill="none" xmlns="http://www.w3.org/2000/svg">
<mask id="mask0_3_128" style="mask-type:luminance" maskUnits="userSpaceOnUse" x="0" y="0" width="26" height="26">
<path d="M0 0H26V26H0V0Z" fill="white"/>
</mask>
<g mask="url(#mask0_3_128)">
<path d="M2.9997 14.4667L0.507812 13.028L3.13904 6.05403L5.59046 6.70062L10.1832 5.33435C10.8121 5.14722 11.3322 5.09365 11.9349 5.4416L12.9396 6.02168M19.6681 12.4709C20.7073 13.0993 21.5267 13.593 21.7404 13.7163C22.337 14.0608 22.5432 14.8306 22.1988 15.4273C21.8544 16.0239 21.0845 16.2302 20.4878 15.8857L19.3987 15.2569C19.995 15.6015 20.201 16.3711 19.8567 16.9677C19.5122 17.5643 18.7423 17.7706 18.1458 17.4261L17.4292 17.0124C18.0256 17.357 18.2316 18.1267 17.8873 18.7232C17.5429 19.3198 16.7729 19.5261 16.1763 19.1816L14.9558 18.477C15.5522 18.8215 15.7584 19.5913 15.414 20.1878C15.0695 20.7844 14.2996 20.9907 13.703 20.6463L11.9002 19.6055M22.3462 14.3059L25.4922 13.1271L23.0493 6.16691L20.3813 6.70062L15.7885 5.33435C15.1595 5.14722 14.6395 5.09365 14.0369 5.4416L10.4451 7.51526C9.84237 7.86326 9.63407 8.64118 9.98197 9.24385C10.3299 9.84652 11.0865 10.0152 11.7105 9.70702C12.261 9.43509 13.1149 9.05251 13.6897 8.85217C13.6948 8.85217 14.5777 9.3869 15.7585 10.1026" stroke="white" stroke-miterlimit="2.613" stroke-linecap="round" stroke-linejoin="round"/>
<path d="M8.65044 14.9869C8.58782 15.0953 8.52516 15.2038 8.46255 15.3123C8.807 14.7157 9.57689 14.5094 10.1735 14.8538C10.7701 15.1983 10.9765 15.9682 10.632 16.5648C10.5455 16.7146 10.459 16.8644 10.3725 17.0142C10.717 16.4176 11.4869 16.2113 12.0835 16.5557C12.6801 16.9002 12.8864 17.6701 12.542 18.2667L11.8329 19.4948C11.4885 20.0914 10.7186 20.2977 10.122 19.9533C9.52535 19.6088 9.31902 18.8389 9.66347 18.2423C9.57699 18.3921 9.49051 18.5419 9.40403 18.6917C9.05963 19.2883 8.28969 19.4946 7.69306 19.1501C7.09648 18.8057 6.89021 18.0358 7.23455 17.4392C7.17194 17.5477 7.10933 17.6561 7.04671 17.7645C6.70226 18.3612 5.93237 18.5674 5.33579 18.223L5.33574 18.223C4.73916 17.8785 4.53284 17.1087 4.87729 16.512C4.9658 16.3587 5.05436 16.2054 5.14292 16.052C4.79797 16.6473 4.02899 16.8529 3.43292 16.5087C2.83634 16.1643 2.62996 15.3943 2.97451 14.7978C3.2108 14.3884 3.44714 13.979 3.68347 13.5697C4.02797 12.973 4.79787 12.7667 5.3945 13.1112C5.99067 13.4554 6.19704 14.2244 5.85371 14.8209C6.06278 14.4587 6.27189 14.0965 6.48096 13.7343C6.82546 13.1377 7.59535 12.9314 8.19193 13.2759L8.19198 13.2759C8.78861 13.6203 8.99489 14.3902 8.65044 14.9869Z" stroke="white" stroke-miterlimit="2.613" stroke-linecap="round" stroke-linejoin="round"/>
<path d="M5.85336 14.8208L5.14258 16.0519" stroke="white" stroke-miterlimit="2.613" stroke-linecap="round" stroke-linejoin="round"/>
<path d="M8.46237 15.3122L7.23438 17.4392" stroke="white" stroke-miterlimit="2.613" stroke-linecap="round" stroke-linejoin="round"/>
<path d="M10.3724 17.0141L9.66333 18.2422" stroke="white" stroke-miterlimit="2.613" stroke-linecap="round" stroke-linejoin="round"/>
<path d="M19.3987 15.2567L15.3574 12.9235" stroke="white" stroke-miterlimit="2.613" stroke-linecap="round" stroke-linejoin="round"/>
<path d="M17.4291 17.0123L13.8813 14.964" stroke="white" stroke-miterlimit="2.613" stroke-linecap="round" stroke-linejoin="round"/>
<path d="M14.9558 18.4768L12.6067 17.1205" stroke="white" stroke-miterlimit="2.613" stroke-linecap="round" stroke-linejoin="round"/>
<path d="M17.7129 11.2871H17.7133" stroke="white" stroke-miterlimit="2.613" stroke-linecap="round" stroke-linejoin="round"/>
</g>
</svg>
